<?xml version="1.0" encoding="utf-8"?>
<!-- Generator: Adobe Illustrator 25.0.0, SVG Export Plug-In . SVG Version: 6.00 Build 0)  -->
<svg version="1.1" id="Camada_1" xmlns="http://www.w3.org/2000/svg" xmlns:xlink="http://www.w3.org/1999/xlink" x="0px" y="0px"
	 viewBox="0 0 1000 1000" style="enable-background:new 0 0 1000 1000;" xml:space="preserve">
<style type="text/css">
	.st0{fill:url(#SVGID_1_);stroke:url(#SVGID_2_);stroke-width:3;stroke-miterlimit:10;}
	.st1{fill:#333333;stroke:url(#SVGID_3_);stroke-width:3;stroke-miterlimit:10;}
	.st2{fill:url(#SVGID_4_);stroke:url(#SVGID_5_);stroke-width:3;stroke-miterlimit:10;}
	.st3{fill:#FFFFFF;stroke:url(#SVGID_6_);stroke-width:3;stroke-miterlimit:10;}
	.st4{fill:url(#SVGID_7_);stroke:url(#SVGID_8_);stroke-width:3;stroke-miterlimit:10;}
	.st5{fill:#333333;stroke:url(#SVGID_9_);stroke-width:3;stroke-miterlimit:10;}
	.st6{fill:url(#SVGID_10_);stroke:url(#SVGID_11_);stroke-width:3;stroke-miterlimit:10;}
	.st7{fill:#666666;}
	.st8{fill:url(#SVGID_12_);stroke:url(#SVGID_13_);stroke-width:3;stroke-miterlimit:10;}
	.st9{fill:url(#SVGID_14_);stroke:url(#SVGID_15_);stroke-width:3;stroke-linejoin:round;stroke-miterlimit:10;}
	.st10{fill:#333333;stroke:url(#SVGID_16_);stroke-width:3;stroke-miterlimit:10;}
	.st11{fill:url(#SVGID_17_);stroke:#FFFFFF;stroke-width:3;stroke-linejoin:round;stroke-miterlimit:10;}
	.st12{fill:#333333;stroke:url(#SVGID_18_);stroke-width:3;stroke-miterlimit:10;}
	.st13{fill:url(#SVGID_19_);stroke:url(#SVGID_20_);stroke-width:3;stroke-miterlimit:10;}
	.st14{fill:#333333;stroke:url(#SVGID_21_);stroke-width:3;stroke-miterlimit:10;}
	.st15{fill:url(#SVGID_22_);stroke:url(#SVGID_23_);stroke-width:3;stroke-miterlimit:10;}
	.st16{fill:url(#SVGID_24_);stroke:url(#SVGID_25_);stroke-width:3;stroke-miterlimit:10;}
	.st17{fill:#333333;stroke:url(#SVGID_26_);stroke-width:3;stroke-miterlimit:10;}
	.st18{fill:#333333;stroke:url(#SVGID_27_);stroke-width:3;stroke-miterlimit:10;}
	.st19{fill:#333333;stroke:url(#SVGID_28_);stroke-width:3;stroke-miterlimit:10;}
	.st20{fill:#333333;stroke:url(#SVGID_29_);stroke-width:3;stroke-miterlimit:10;}
</style>
<linearGradient id="SVGID_1_" gradientUnits="userSpaceOnUse" x1="92.5" y1="655" x2="954.5099" y2="655" gradientTransform="matrix(1 0 0 -1 0 1002)">
	<stop  offset="5.310000e-02" style="stop-color:#55D1FF"/>
	<stop  offset="0.8212" style="stop-color:#2A5BFF"/>
</linearGradient>
<linearGradient id="SVGID_2_" gradientUnits="userSpaceOnUse" x1="91" y1="655" x2="956.0099" y2="655" gradientTransform="matrix(1 0 0 -1 0 1002)">
	<stop  offset="5.310000e-02" style="stop-color:#55D1FF"/>
	<stop  offset="0.8212" style="stop-color:#2A5BFF"/>
</linearGradient>
<path class="st0" d="M937.2,595.5H109.8c-9.5,0-17.3-7.8-17.3-17.3V115.8c0-9.5,7.8-17.3,17.3-17.3h827.4c9.5,0,17.3,7.8,17.3,17.3
	v462.4C954.5,587.7,946.7,595.5,937.2,595.5z"/>
<linearGradient id="SVGID_3_" gradientUnits="userSpaceOnUse" x1="104" y1="652" x2="941" y2="652" gradientTransform="matrix(1 0 0 -1 0 1002)">
	<stop  offset="5.310000e-02" style="stop-color:#55D1FF"/>
	<stop  offset="0.8212" style="stop-color:#2A5BFF"/>
</linearGradient>
<path class="st1" d="M927.5,585.5h-810c-6.6,0-12-5.4-12-12v-447c0-6.6,5.4-12,12-12h810c6.6,0,12,5.4,12,12v447
	C939.5,580.1,934.1,585.5,927.5,585.5z"/>
<g>
	
		<linearGradient id="SVGID_4_" gradientUnits="userSpaceOnUse" x1="737.5" y1="264" x2="845.5" y2="264" gradientTransform="matrix(1 0 0 -1 0 1002)">
		<stop  offset="5.310000e-02" style="stop-color:#55D1FF"/>
		<stop  offset="0.8212" style="stop-color:#2A5BFF"/>
	</linearGradient>
	
		<linearGradient id="SVGID_5_" gradientUnits="userSpaceOnUse" x1="736" y1="264" x2="847" y2="264" gradientTransform="matrix(1 0 0 -1 0 1002)">
		<stop  offset="5.310000e-02" style="stop-color:#55D1FF"/>
		<stop  offset="0.8212" style="stop-color:#2A5BFF"/>
	</linearGradient>
	<ellipse class="st2" cx="791.5" cy="738" rx="54" ry="12.5"/>
	
		<linearGradient id="SVGID_6_" gradientUnits="userSpaceOnUse" x1="779" y1="294" x2="805" y2="294" gradientTransform="matrix(1 0 0 -1 0 1002)">
		<stop  offset="5.310000e-02" style="stop-color:#55D1FF"/>
		<stop  offset="0.8212" style="stop-color:#2A5BFF"/>
	</linearGradient>
	<path class="st3" d="M792,734.5L792,734.5c-6.3,0-11.5-5.2-11.5-11.5v-30c0-6.3,5.2-11.5,11.5-11.5l0,0c6.3,0,11.5,5.2,11.5,11.5
		v30C803.5,729.3,798.3,734.5,792,734.5z"/>
	<g>
		
			<linearGradient id="SVGID_7_" gradientUnits="userSpaceOnUse" x1="609.8199" y1="320.75" x2="973.52" y2="320.75" gradientTransform="matrix(1 0 0 -1 0 1002)">
			<stop  offset="5.310000e-02" style="stop-color:#55D1FF"/>
			<stop  offset="0.8212" style="stop-color:#2A5BFF"/>
		</linearGradient>
		
			<linearGradient id="SVGID_8_" gradientUnits="userSpaceOnUse" x1="654.0557" y1="244.1683" x2="931.1259" y2="404.1349" gradientTransform="matrix(1 0 0 -1 0 1002)">
			<stop  offset="5.310000e-02" style="stop-color:#55D1FF"/>
			<stop  offset="0.8212" style="stop-color:#2A5BFF"/>
		</linearGradient>
		<path class="st4" d="M621.8,687h339.8c6.4,0,11.7-5.1,12-11.5H609.8C610.1,681.9,615.4,687,621.8,687z"/>
		
			<linearGradient id="SVGID_9_" gradientUnits="userSpaceOnUse" x1="608.3" y1="412.5" x2="975.0601" y2="412.5" gradientTransform="matrix(1 0 0 -1 0 1002)">
			<stop  offset="5.310000e-02" style="stop-color:#55D1FF"/>
			<stop  offset="0.8212" style="stop-color:#2A5BFF"/>
		</linearGradient>
		<path class="st5" d="M609.8,506.8V675c0,0.2,0,0.3,0,0.5h363.7c0-0.2,0-0.3,0-0.5V503.5H609.8V506.8"/>
		
			<linearGradient id="SVGID_10_" gradientUnits="userSpaceOnUse" x1="609.8" y1="504.75" x2="973.55" y2="504.75" gradientTransform="matrix(1 0 0 -1 0 1002)">
			<stop  offset="5.310000e-02" style="stop-color:#55D1FF"/>
			<stop  offset="0.8212" style="stop-color:#2A5BFF"/>
		</linearGradient>
		
			<linearGradient id="SVGID_11_" gradientUnits="userSpaceOnUse" x1="608.3" y1="504.75" x2="975.05" y2="504.75" gradientTransform="matrix(1 0 0 -1 0 1002)">
			<stop  offset="5.310000e-02" style="stop-color:#55D1FF"/>
			<stop  offset="0.8212" style="stop-color:#2A5BFF"/>
		</linearGradient>
		<path class="st6" d="M973.5,503c0-6.6-5.4-12-12-12H621.8c-6.6,0-12,5.4-12,12v0.5h363.8V503z"/>
	</g>
	<path class="st7" d="M745.3,538.3l-69.3,40c-4,2.3-9.3,0.9-11.6-3.1l0,0c-2.3-4-0.9-9.3,3.1-11.6l69.3-40c4-2.3,9.3-0.9,11.6,3.1
		l0,0C750.7,530.7,749.3,535.9,745.3,538.3z"/>
	<path class="st7" d="M728.4,575.8l-35.5,20.5c-4,2.3-9.3,0.9-11.6-3.1l0,0c-2.3-4-0.9-9.3,3.1-11.6l35.5-20.5
		c4-2.3,9.3-0.9,11.6,3.1l0,0C733.8,568.2,732.4,573.4,728.4,575.8z"/>
</g>
<g>
	<g>
		
			<linearGradient id="SVGID_12_" gradientUnits="userSpaceOnUse" x1="442.09" y1="306.055" x2="664.89" y2="306.055" gradientTransform="matrix(1 0 0 -1 0 1002)">
			<stop  offset="5.310000e-02" style="stop-color:#55D1FF"/>
			<stop  offset="0.8212" style="stop-color:#2A5BFF"/>
		</linearGradient>
		
			<linearGradient id="SVGID_13_" gradientUnits="userSpaceOnUse" x1="440.59" y1="306.055" x2="666.39" y2="306.055" gradientTransform="matrix(1 0 0 -1 0 1002)">
			<stop  offset="5.310000e-02" style="stop-color:#55D1FF"/>
			<stop  offset="0.8212" style="stop-color:#2A5BFF"/>
		</linearGradient>
		<path class="st8" d="M652.9,766.4H454.1c-6.6,0-12-5.4-12-12V637.5c0-6.6,5.4-12,12-12h198.8c6.6,0,12,5.4,12,12v116.9
			C664.9,761,659.5,766.4,652.9,766.4z"/>
		
			<linearGradient id="SVGID_14_" gradientUnits="userSpaceOnUse" x1="399.5" y1="205.305" x2="706.66" y2="205.305" gradientTransform="matrix(1 0 0 -1 0 1002)">
			<stop  offset="5.310000e-02" style="stop-color:#55D1FF"/>
			<stop  offset="0.8212" style="stop-color:#2A5BFF"/>
		</linearGradient>
		
			<linearGradient id="SVGID_15_" gradientUnits="userSpaceOnUse" x1="398" y1="205.305" x2="708.16" y2="205.305" gradientTransform="matrix(1 0 0 -1 0 1002)">
			<stop  offset="5.310000e-02" style="stop-color:#55D1FF"/>
			<stop  offset="0.8212" style="stop-color:#2A5BFF"/>
		</linearGradient>
		<polygon class="st9" points="442.1,766.4 399.5,827 706.7,827 664.9,766.4 		"/>
	</g>
	
		<linearGradient id="SVGID_16_" gradientUnits="userSpaceOnUse" x1="441" y1="307" x2="666" y2="307" gradientTransform="matrix(1 0 0 -1 0 1002)">
		<stop  offset="5.310000e-02" style="stop-color:#55D1FF"/>
		<stop  offset="0.8212" style="stop-color:#2A5BFF"/>
	</linearGradient>
	<rect x="442.5" y="637.5" class="st10" width="222" height="115"/>
	<path class="st7" d="M523.4,662.6l-35.7,20.6c-4,2.3-9.3,0.9-11.6-3.1l0,0c-2.3-4-0.9-9.3,3.1-11.6l35.7-20.6
		c4-2.3,9.3-0.9,11.6,3.1l0,0C528.9,655,527.5,660.3,523.4,662.6z"/>
	<path class="st7" d="M520.2,689.4l-12,7c-4,2.3-9.3,0.9-11.6-3.1l0,0c-2.3-4-0.9-9.3,3.1-11.6l12-7c4-2.3,9.3-0.9,11.6,3.1l0,0
		C525.6,681.8,524.2,687,520.2,689.4z"/>
	
		<linearGradient id="SVGID_17_" gradientUnits="userSpaceOnUse" x1="429.92" y1="205.04" x2="676" y2="205.04" gradientTransform="matrix(1 0 0 -1 0 1002)">
		<stop  offset="5.310000e-02" style="stop-color:#55D1FF"/>
		<stop  offset="0.8212" style="stop-color:#2A5BFF"/>
	</linearGradient>
	<polygon class="st11" points="464,774.9 429.9,819 676,819 642.5,774.9 	"/>
</g>
<g>
	
		<linearGradient id="SVGID_18_" gradientUnits="userSpaceOnUse" x1="294" y1="318.5" x2="425" y2="318.5" gradientTransform="matrix(1 0 0 -1 0 1002)">
		<stop  offset="5.310000e-02" style="stop-color:#55D1FF"/>
		<stop  offset="0.8212" style="stop-color:#2A5BFF"/>
	</linearGradient>
	<path class="st12" d="M411.5,763.5h-104c-6.6,0-12-5.4-12-12v-136c0-6.6,5.4-12,12-12h104c6.6,0,12,5.4,12,12v136
		C423.5,758.1,418.1,763.5,411.5,763.5z"/>
	
		<linearGradient id="SVGID_19_" gradientUnits="userSpaceOnUse" x1="356.5" y1="250.5" x2="362.5" y2="250.5" gradientTransform="matrix(1 0 0 -1 0 1002)">
		<stop  offset="5.310000e-02" style="stop-color:#55D1FF"/>
		<stop  offset="0.8212" style="stop-color:#2A5BFF"/>
	</linearGradient>
	
		<linearGradient id="SVGID_20_" gradientUnits="userSpaceOnUse" x1="355" y1="250.5" x2="364" y2="250.5" gradientTransform="matrix(1 0 0 -1 0 1002)">
		<stop  offset="5.310000e-02" style="stop-color:#55D1FF"/>
		<stop  offset="0.8212" style="stop-color:#2A5BFF"/>
	</linearGradient>
	<circle class="st13" cx="359.5" cy="751.5" r="3"/>
</g>
<g>
	
		<linearGradient id="SVGID_21_" gradientUnits="userSpaceOnUse" x1="382" y1="276" x2="446" y2="276" gradientTransform="matrix(1 0 0 -1 0 1002)">
		<stop  offset="5.310000e-02" style="stop-color:#55D1FF"/>
		<stop  offset="0.8212" style="stop-color:#2A5BFF"/>
	</linearGradient>
	<path class="st14" d="M432.5,782.5h-37c-6.6,0-12-5.4-12-12v-89c0-6.6,5.4-12,12-12h37c6.6,0,12,5.4,12,12v89
		C444.5,777.1,439.1,782.5,432.5,782.5z"/>
	
		<linearGradient id="SVGID_22_" gradientUnits="userSpaceOnUse" x1="404.5" y1="320.5" x2="422.5" y2="320.5" gradientTransform="matrix(1 0 0 -1 0 1002)">
		<stop  offset="5.310000e-02" style="stop-color:#55D1FF"/>
		<stop  offset="0.8212" style="stop-color:#2A5BFF"/>
	</linearGradient>
	
		<linearGradient id="SVGID_23_" gradientUnits="userSpaceOnUse" x1="403" y1="320.5" x2="424" y2="320.5" gradientTransform="matrix(1 0 0 -1 0 1002)">
		<stop  offset="5.310000e-02" style="stop-color:#55D1FF"/>
		<stop  offset="0.8212" style="stop-color:#2A5BFF"/>
	</linearGradient>
	<path class="st15" d="M419.5,684.5h-12c-1.6,0-3-1.3-3-3l0,0c0-1.7,1.4-3,3-3h12c1.6,0,3,1.3,3,3l0,0
		C422.5,683.2,421.1,684.5,419.5,684.5z"/>
</g>
<linearGradient id="SVGID_24_" gradientUnits="userSpaceOnUse" x1="37.5" y1="399" x2="252.5" y2="399" gradientTransform="matrix(1 0 0 -1 0 1002)">
	<stop  offset="5.310000e-02" style="stop-color:#55D1FF"/>
	<stop  offset="0.8212" style="stop-color:#2A5BFF"/>
</linearGradient>
<linearGradient id="SVGID_25_" gradientUnits="userSpaceOnUse" x1="36" y1="399" x2="254" y2="399" gradientTransform="matrix(1 0 0 -1 0 1002)">
	<stop  offset="5.310000e-02" style="stop-color:#55D1FF"/>
	<stop  offset="0.8212" style="stop-color:#2A5BFF"/>
</linearGradient>
<path class="st16" d="M240.5,795.5h-191c-6.6,0-12-5.4-12-12v-361c0-6.6,5.4-12,12-12h191c6.6,0,12,5.4,12,12v361
	C252.5,790.1,247.1,795.5,240.5,795.5z"/>
<linearGradient id="SVGID_26_" gradientUnits="userSpaceOnUse" x1="71" y1="489.5" x2="220" y2="489.5" gradientTransform="matrix(1 0 0 -1 0 1002)">
	<stop  offset="5.310000e-02" style="stop-color:#55D1FF"/>
	<stop  offset="0.8212" style="stop-color:#2A5BFF"/>
</linearGradient>
<circle class="st17" cx="145.5" cy="512.5" r="73"/>
<linearGradient id="SVGID_27_" gradientUnits="userSpaceOnUse" x1="71" y1="308.5" x2="220" y2="308.5" gradientTransform="matrix(1 0 0 -1 0 1002)">
	<stop  offset="5.310000e-02" style="stop-color:#55D1FF"/>
	<stop  offset="0.8212" style="stop-color:#2A5BFF"/>
</linearGradient>
<circle class="st18" cx="145.5" cy="693.5" r="73"/>
<linearGradient id="SVGID_28_" gradientUnits="userSpaceOnUse" x1="91" y1="490" x2="199" y2="490" gradientTransform="matrix(1 0 0 -1 0 1002)">
	<stop  offset="5.310000e-02" style="stop-color:#55D1FF"/>
	<stop  offset="0.8212" style="stop-color:#2A5BFF"/>
</linearGradient>
<circle class="st19" cx="145" cy="512" r="52.5"/>
<linearGradient id="SVGID_29_" gradientUnits="userSpaceOnUse" x1="91" y1="309" x2="199" y2="309" gradientTransform="matrix(1 0 0 -1 0 1002)">
	<stop  offset="5.310000e-02" style="stop-color:#55D1FF"/>
	<stop  offset="0.8212" style="stop-color:#2A5BFF"/>
</linearGradient>
<circle class="st20" cx="145" cy="693" r="52.5"/>
<path class="st7" d="M395.1,215.9l-143.8,83c-4.1,2.3-9.3,0.9-11.6-3.1l0,0c-2.3-4-0.9-9.3,3.1-11.6l143.8-83
	c4-2.3,9.3-0.9,11.6,3.1l0,0C400.6,208.3,399.2,213.5,395.1,215.9z"/>
<path class="st7" d="M374,263.2l-88.6,51.1c-4,2.3-9.3,0.9-11.6-3.1l0,0c-2.3-4-0.9-9.3,3.1-11.6l88.6-51.1c4-2.3,9.3-0.9,11.6,3.1
	l0,0C379.4,255.6,378,260.9,374,263.2z"/>
<path class="st7" d="M351.3,630.2L320.5,648c-4,2.3-9.3,0.9-11.6-3.1l0,0c-2.3-4-0.9-9.3,3.1-11.6l30.8-17.8c4-2.3,9.3-0.9,11.6,3.1
	l0,0C356.8,622.6,355.4,627.8,351.3,630.2z"/>
<path class="st7" d="M428.5,709.7L403,724.3c-4,2.3-9.3,0.9-11.6-3.1l0,0c-2.3-4-0.9-9.3,3.1-11.6l25.5-14.7c4-2.3,9.3-0.9,11.6,3.1
	l0,0C433.9,702.1,432.5,707.3,428.5,709.7z"/>
</svg>
