<?xml version="1.0" encoding="utf-8"?>
<!-- Generator: Adobe Illustrator 25.0.0, SVG Export Plug-In . SVG Version: 6.00 Build 0)  -->
<svg version="1.1" id="Camada_1" xmlns="http://www.w3.org/2000/svg" xmlns:xlink="http://www.w3.org/1999/xlink" x="0px" y="0px"
	 viewBox="0 0 1000 1000" style="enable-background:new 0 0 1000 1000;" xml:space="preserve">
<style type="text/css">
	.st0{fill:#D9B9FF;}
	.st1{fill:none;stroke:#BB86F9;stroke-width:20;stroke-miterlimit:10;}
	.st2{fill:url(#SVGID_1_);stroke:url(#SVGID_2_);stroke-width:3;stroke-miterlimit:10;}
	.st3{fill:#333333;stroke:url(#SVGID_3_);stroke-width:3;stroke-miterlimit:10;}
	.st4{fill:url(#SVGID_4_);stroke:url(#SVGID_5_);stroke-width:3;stroke-miterlimit:10;}
	.st5{fill:#FFFFFF;stroke:url(#SVGID_6_);stroke-width:3;stroke-miterlimit:10;}
	.st6{fill:url(#SVGID_7_);stroke:url(#SVGID_8_);stroke-width:3;stroke-miterlimit:10;}
	.st7{fill:#333333;stroke:url(#SVGID_9_);stroke-width:3;stroke-miterlimit:10;}
	.st8{fill:url(#SVGID_10_);stroke:url(#SVGID_11_);stroke-width:3;stroke-miterlimit:10;}
	.st9{fill:#666666;}
	.st10{fill:url(#SVGID_12_);stroke:url(#SVGID_13_);stroke-width:3;stroke-miterlimit:10;}
	.st11{fill:url(#SVGID_14_);stroke:url(#SVGID_15_);stroke-width:3;stroke-linejoin:round;stroke-miterlimit:10;}
	.st12{fill:#333333;stroke:url(#SVGID_16_);stroke-width:3;stroke-miterlimit:10;}
	.st13{fill:url(#SVGID_17_);stroke:#FFFFFF;stroke-width:3;stroke-linejoin:round;stroke-miterlimit:10;}
	.st14{fill:#333333;stroke:url(#SVGID_18_);stroke-width:3;stroke-miterlimit:10;}
	.st15{fill:url(#SVGID_19_);stroke:url(#SVGID_20_);stroke-width:3;stroke-miterlimit:10;}
	.st16{fill:#333333;stroke:url(#SVGID_21_);stroke-width:3;stroke-miterlimit:10;}
	.st17{fill:url(#SVGID_22_);stroke:url(#SVGID_23_);stroke-width:3;stroke-miterlimit:10;}
	.st18{fill:url(#SVGID_24_);stroke:url(#SVGID_25_);stroke-width:3;stroke-miterlimit:10;}
	.st19{fill:#333333;stroke:url(#SVGID_26_);stroke-width:3;stroke-miterlimit:10;}
	.st20{fill:#333333;stroke:url(#SVGID_27_);stroke-width:3;stroke-miterlimit:10;}
	.st21{fill:#333333;stroke:url(#SVGID_28_);stroke-width:3;stroke-miterlimit:10;}
	.st22{fill:#333333;stroke:url(#SVGID_29_);stroke-width:3;stroke-miterlimit:10;}
</style>
<circle class="st0" cx="500" cy="500" r="421.4"/>
<circle class="st1" cx="380.3" cy="472.1" r="322"/>
<linearGradient id="SVGID_1_" gradientUnits="userSpaceOnUse" x1="264.6898" y1="933.91" x2="755.762" y2="933.91" gradientTransform="matrix(1 0 0 1 0 -498)">
	<stop  offset="5.310000e-02" style="stop-color:#55D1FF"/>
	<stop  offset="0.8212" style="stop-color:#2A5BFF"/>
</linearGradient>
<linearGradient id="SVGID_2_" gradientUnits="userSpaceOnUse" x1="263.1898" y1="933.91" x2="757.262" y2="933.91" gradientTransform="matrix(1 0 0 1 0 -498)">
	<stop  offset="5.310000e-02" style="stop-color:#55D1FF"/>
	<stop  offset="0.8212" style="stop-color:#2A5BFF"/>
</linearGradient>
<path class="st2" d="M745.9,577.5H274.5c-5.4,0-9.9-4.4-9.9-9.9V304.2c0-5.4,4.4-9.9,9.9-9.9h471.4c5.4,0,9.9,4.4,9.9,9.9v263.4
	C755.8,573,751.3,577.5,745.9,577.5z"/>
<linearGradient id="SVGID_3_" gradientUnits="userSpaceOnUse" x1="270.5958" y1="935.619" x2="748.7167" y2="935.619" gradientTransform="matrix(1 0 0 1 0 -498)">
	<stop  offset="5.310000e-02" style="stop-color:#55D1FF"/>
	<stop  offset="0.8212" style="stop-color:#2A5BFF"/>
</linearGradient>
<path class="st3" d="M740.4,571.8H278.9c-3.8,0-6.8-3.1-6.8-6.8V310.3c0-3.8,3.1-6.8,6.8-6.8h461.4c3.8,0,6.8,3.1,6.8,6.8v254.7
	C747.2,568.7,744.1,571.8,740.4,571.8z"/>
<g>
	
		<linearGradient id="SVGID_4_" gradientUnits="userSpaceOnUse" x1="632.1395" y1="1156.6584" x2="693.6659" y2="1156.6584" gradientTransform="matrix(1 0 0 1 0 -498)">
		<stop  offset="5.310000e-02" style="stop-color:#55D1FF"/>
		<stop  offset="0.8212" style="stop-color:#2A5BFF"/>
	</linearGradient>
	
		<linearGradient id="SVGID_5_" gradientUnits="userSpaceOnUse" x1="630.6395" y1="1156.6584" x2="695.1659" y2="1156.6584" gradientTransform="matrix(1 0 0 1 0 -498)">
		<stop  offset="5.310000e-02" style="stop-color:#55D1FF"/>
		<stop  offset="0.8212" style="stop-color:#2A5BFF"/>
	</linearGradient>
	<ellipse class="st4" cx="662.9" cy="658.7" rx="30.8" ry="7.1"/>
	
		<linearGradient id="SVGID_6_" gradientUnits="userSpaceOnUse" x1="655.1361" y1="1139.5677" x2="671.239" y2="1139.5677" gradientTransform="matrix(1 0 0 1 0 -498)">
		<stop  offset="5.310000e-02" style="stop-color:#55D1FF"/>
		<stop  offset="0.8212" style="stop-color:#2A5BFF"/>
	</linearGradient>
	<path class="st5" d="M663.2,656.7L663.2,656.7c-3.6,0-6.6-3-6.6-6.6V633c0-3.6,3-6.6,6.6-6.6l0,0c3.6,0,6.6,3,6.6,6.6v17.1
		C669.7,653.7,666.8,656.7,663.2,656.7z"/>
	<g>
		
			<linearGradient id="SVGID_7_" gradientUnits="userSpaceOnUse" x1="559.3901" y1="1124.3286" x2="766.6431" y2="1124.3286" gradientTransform="matrix(1 0 0 1 0 -498)">
			<stop  offset="5.310000e-02" style="stop-color:#55D1FF"/>
			<stop  offset="0.8212" style="stop-color:#2A5BFF"/>
		</linearGradient>
		
			<linearGradient id="SVGID_8_" gradientUnits="userSpaceOnUse" x1="583.98" y1="1168.1736" x2="743.2097" y2="1076.2423" gradientTransform="matrix(1 0 0 1 0 -498)">
			<stop  offset="5.310000e-02" style="stop-color:#55D1FF"/>
			<stop  offset="0.8212" style="stop-color:#2A5BFF"/>
		</linearGradient>
		<path class="st6" d="M566.2,629.6h193.6c3.6,0,6.7-2.9,6.8-6.6H559.4C559.6,626.7,562.6,629.6,566.2,629.6z"/>
		
			<linearGradient id="SVGID_9_" gradientUnits="userSpaceOnUse" x1="557.8901" y1="1072.0596" x2="768.0861" y2="1072.0596" gradientTransform="matrix(1 0 0 1 0 -498)">
			<stop  offset="5.310000e-02" style="stop-color:#55D1FF"/>
			<stop  offset="0.8212" style="stop-color:#2A5BFF"/>
		</linearGradient>
		<path class="st7" d="M559.4,526.9v95.8c0,0.1,0,0.2,0,0.3h207.2c0-0.1,0-0.2,0-0.3v-97.7H559.4V526.9"/>
		
			<linearGradient id="SVGID_10_" gradientUnits="userSpaceOnUse" x1="559.3901" y1="1019.5058" x2="766.6431" y2="1019.5058" gradientTransform="matrix(1 0 0 1 0 -498)">
			<stop  offset="5.310000e-02" style="stop-color:#55D1FF"/>
			<stop  offset="0.8212" style="stop-color:#2A5BFF"/>
		</linearGradient>
		
			<linearGradient id="SVGID_11_" gradientUnits="userSpaceOnUse" x1="557.8901" y1="1019.5058" x2="768.1431" y2="1019.5058" gradientTransform="matrix(1 0 0 1 0 -498)">
			<stop  offset="5.310000e-02" style="stop-color:#55D1FF"/>
			<stop  offset="0.8212" style="stop-color:#2A5BFF"/>
		</linearGradient>
		<path class="st8" d="M766.6,524.8c0-3.8-3.1-6.8-6.8-6.8H566.2c-3.8,0-6.8,3.1-6.8,6.8v0.3h207.3L766.6,524.8L766.6,524.8z"/>
	</g>
	<path class="st9" d="M636.6,544.9l-39.5,22.8c-2.3,1.3-5.3,0.5-6.6-1.8l0,0c-1.3-2.3-0.5-5.3,1.8-6.6l39.5-22.8
		c2.3-1.3,5.3-0.5,6.6,1.8l0,0C639.7,540.6,638.9,543.5,636.6,544.9z"/>
	<path class="st9" d="M627,566.3l-20.2,11.7c-2.3,1.3-5.3,0.5-6.6-1.8l0,0c-1.3-2.3-0.5-5.3,1.8-6.6l20.2-11.7
		c2.3-1.3,5.3-0.5,6.6,1.8l0,0C630,561.9,629.2,564.9,627,566.3z"/>
</g>
<g>
	<g>
		
			<linearGradient id="SVGID_12_" gradientUnits="userSpaceOnUse" x1="463.8532" y1="1132.703" x2="590.78" y2="1132.703" gradientTransform="matrix(1 0 0 1 0 -498)">
			<stop  offset="5.310000e-02" style="stop-color:#55D1FF"/>
			<stop  offset="0.8212" style="stop-color:#2A5BFF"/>
		</linearGradient>
		
			<linearGradient id="SVGID_13_" gradientUnits="userSpaceOnUse" x1="462.3532" y1="1132.703" x2="592.28" y2="1132.703" gradientTransform="matrix(1 0 0 1 0 -498)">
			<stop  offset="5.310000e-02" style="stop-color:#55D1FF"/>
			<stop  offset="0.8212" style="stop-color:#2A5BFF"/>
		</linearGradient>
		<path class="st10" d="M583.9,674.8H470.7c-3.8,0-6.8-3.1-6.8-6.8v-66.6c0-3.8,3.1-6.8,6.8-6.8h113.3c3.8,0,6.8,3.1,6.8,6.8V668
			C590.8,671.8,587.7,674.8,583.9,674.8z"/>
		
			<linearGradient id="SVGID_14_" gradientUnits="userSpaceOnUse" x1="439.5844" y1="1190.0992" x2="614.593" y2="1190.0992" gradientTransform="matrix(1 0 0 1 0 -498)">
			<stop  offset="5.310000e-02" style="stop-color:#55D1FF"/>
			<stop  offset="0.8212" style="stop-color:#2A5BFF"/>
		</linearGradient>
		
			<linearGradient id="SVGID_15_" gradientUnits="userSpaceOnUse" x1="438.0844" y1="1190.0992" x2="616.093" y2="1190.0992" gradientTransform="matrix(1 0 0 1 0 -498)">
			<stop  offset="5.310000e-02" style="stop-color:#55D1FF"/>
			<stop  offset="0.8212" style="stop-color:#2A5BFF"/>
		</linearGradient>
		<polygon class="st11" points="463.9,674.8 439.6,709.4 614.6,709.4 590.8,674.8 		"/>
	</g>
	
		<linearGradient id="SVGID_16_" gradientUnits="userSpaceOnUse" x1="462.5811" y1="1132.1619" x2="592.0521" y2="1132.1619" gradientTransform="matrix(1 0 0 1 0 -498)">
		<stop  offset="5.310000e-02" style="stop-color:#55D1FF"/>
		<stop  offset="0.8212" style="stop-color:#2A5BFF"/>
	</linearGradient>
	<rect x="464.1" y="601.4" class="st12" width="126.5" height="65.5"/>
	<path class="st9" d="M510.2,615.7l-20.3,11.7c-2.3,1.3-5.3,0.5-6.6-1.8l0,0c-1.3-2.3-0.5-5.3,1.8-6.6l20.3-11.7
		c2.3-1.3,5.3-0.5,6.6,1.8l0,0C513.3,611.4,512.5,614.4,510.2,615.7z"/>
	<path class="st9" d="M508.3,631l-6.8,4c-2.3,1.3-5.3,0.5-6.6-1.8l0,0c-1.3-2.3-0.5-5.3,1.8-6.6l6.8-4c2.3-1.3,5.3-0.5,6.6,1.8l0,0
		C511.4,626.6,510.6,629.6,508.3,631z"/>
	
		<linearGradient id="SVGID_17_" gradientUnits="userSpaceOnUse" x1="456.903" y1="1190.2417" x2="597.1036" y2="1190.2417" gradientTransform="matrix(1 0 0 1 0 -498)">
		<stop  offset="5.310000e-02" style="stop-color:#55D1FF"/>
		<stop  offset="0.8212" style="stop-color:#2A5BFF"/>
	</linearGradient>
	<polygon class="st13" points="476.3,679.7 456.9,704.8 597.1,704.8 578,679.7 	"/>
</g>
<g>
	
		<linearGradient id="SVGID_18_" gradientUnits="userSpaceOnUse" x1="378.8368" y1="1125.6105" x2="454.757" y2="1125.6105" gradientTransform="matrix(1 0 0 1 0 -498)">
		<stop  offset="5.310000e-02" style="stop-color:#55D1FF"/>
		<stop  offset="0.8212" style="stop-color:#2A5BFF"/>
	</linearGradient>
	<path class="st14" d="M446.4,673.2h-59.2c-3.8,0-6.8-3.1-6.8-6.8v-77.5c0-3.8,3.1-6.8,6.8-6.8h59.2c3.8,0,6.8,3.1,6.8,6.8v77.5
		C453.3,670.1,450.2,673.2,446.4,673.2z"/>
	
		<linearGradient id="SVGID_19_" gradientUnits="userSpaceOnUse" x1="415.0878" y1="1164.3492" x2="418.506" y2="1164.3492" gradientTransform="matrix(1 0 0 1 0 -498)">
		<stop  offset="5.310000e-02" style="stop-color:#55D1FF"/>
		<stop  offset="0.8212" style="stop-color:#2A5BFF"/>
	</linearGradient>
	
		<linearGradient id="SVGID_20_" gradientUnits="userSpaceOnUse" x1="413.5878" y1="1164.3492" x2="420.006" y2="1164.3492" gradientTransform="matrix(1 0 0 1 0 -498)">
		<stop  offset="5.310000e-02" style="stop-color:#55D1FF"/>
		<stop  offset="0.8212" style="stop-color:#2A5BFF"/>
	</linearGradient>
	<circle class="st15" cx="416.8" cy="666.3" r="1.7"/>
</g>
<g>
	
		<linearGradient id="SVGID_21_" gradientUnits="userSpaceOnUse" x1="428.9694" y1="1149.8223" x2="466.7205" y2="1149.8223" gradientTransform="matrix(1 0 0 1 0 -498)">
		<stop  offset="5.310000e-02" style="stop-color:#55D1FF"/>
		<stop  offset="0.8212" style="stop-color:#2A5BFF"/>
	</linearGradient>
	<path class="st16" d="M458.4,684h-21.1c-3.8,0-6.8-3.1-6.8-6.8v-50.7c0-3.8,3.1-6.8,6.8-6.8h21.1c3.8,0,6.8,3.1,6.8,6.8v50.7
		C465.2,680.9,462.1,684,458.4,684z"/>
	
		<linearGradient id="SVGID_22_" gradientUnits="userSpaceOnUse" x1="442.4329" y1="1124.4711" x2="452.6873" y2="1124.4711" gradientTransform="matrix(1 0 0 1 0 -498)">
		<stop  offset="5.310000e-02" style="stop-color:#55D1FF"/>
		<stop  offset="0.8212" style="stop-color:#2A5BFF"/>
	</linearGradient>
	
		<linearGradient id="SVGID_23_" gradientUnits="userSpaceOnUse" x1="440.9329" y1="1124.4711" x2="454.1873" y2="1124.4711" gradientTransform="matrix(1 0 0 1 0 -498)">
		<stop  offset="5.310000e-02" style="stop-color:#55D1FF"/>
		<stop  offset="0.8212" style="stop-color:#2A5BFF"/>
	</linearGradient>
	<path class="st17" d="M451,628.2h-6.8c-0.9,0-1.7-0.7-1.7-1.7l0,0c0-1,0.8-1.7,1.7-1.7h6.8c0.9,0,1.7,0.7,1.7,1.7l0,0
		C452.7,627.4,451.9,628.2,451,628.2z"/>
</g>
<linearGradient id="SVGID_24_" gradientUnits="userSpaceOnUse" x1="233.3569" y1="1079.7504" x2="355.8401" y2="1079.7504" gradientTransform="matrix(1 0 0 1 0 -498)">
	<stop  offset="5.310000e-02" style="stop-color:#55D1FF"/>
	<stop  offset="0.8212" style="stop-color:#2A5BFF"/>
</linearGradient>
<linearGradient id="SVGID_25_" gradientUnits="userSpaceOnUse" x1="231.8569" y1="1079.7504" x2="357.3401" y2="1079.7504" gradientTransform="matrix(1 0 0 1 0 -498)">
	<stop  offset="5.310000e-02" style="stop-color:#55D1FF"/>
	<stop  offset="0.8212" style="stop-color:#2A5BFF"/>
</linearGradient>
<path class="st18" d="M349,691.4H240.2c-3.8,0-6.8-3.1-6.8-6.8V478.9c0-3.8,3.1-6.8,6.8-6.8H349c3.8,0,6.8,3.1,6.8,6.8v205.7
	C355.8,688.3,352.8,691.4,349,691.4z"/>
<linearGradient id="SVGID_26_" gradientUnits="userSpaceOnUse" x1="251.796" y1="1028.1935" x2="337.9707" y2="1028.1935" gradientTransform="matrix(1 0 0 1 0 -498)">
	<stop  offset="5.310000e-02" style="stop-color:#55D1FF"/>
	<stop  offset="0.8212" style="stop-color:#2A5BFF"/>
</linearGradient>
<circle class="st19" cx="294.9" cy="530.2" r="41.6"/>
<linearGradient id="SVGID_27_" gradientUnits="userSpaceOnUse" x1="251.796" y1="1131.3073" x2="337.9707" y2="1131.3073" gradientTransform="matrix(1 0 0 1 0 -498)">
	<stop  offset="5.310000e-02" style="stop-color:#55D1FF"/>
	<stop  offset="0.8212" style="stop-color:#2A5BFF"/>
</linearGradient>
<circle class="st20" cx="294.9" cy="633.3" r="41.6"/>
<linearGradient id="SVGID_28_" gradientUnits="userSpaceOnUse" x1="263.1898" y1="1027.9087" x2="326.0072" y2="1027.9087" gradientTransform="matrix(1 0 0 1 0 -498)">
	<stop  offset="5.310000e-02" style="stop-color:#55D1FF"/>
	<stop  offset="0.8212" style="stop-color:#2A5BFF"/>
</linearGradient>
<circle class="st21" cx="294.6" cy="529.9" r="29.9"/>
<linearGradient id="SVGID_29_" gradientUnits="userSpaceOnUse" x1="263.1898" y1="1131.0225" x2="326.0072" y2="1131.0225" gradientTransform="matrix(1 0 0 1 0 -498)">
	<stop  offset="5.310000e-02" style="stop-color:#55D1FF"/>
	<stop  offset="0.8212" style="stop-color:#2A5BFF"/>
</linearGradient>
<circle class="st22" cx="294.6" cy="633" r="29.9"/>
<path class="st9" d="M437.1,361.2l-81.9,47.3c-2.3,1.3-5.3,0.5-6.6-1.8l0,0c-1.3-2.3-0.5-5.3,1.8-6.6l81.9-47.3
	c2.3-1.3,5.3-0.5,6.6,1.8l0,0C440.2,356.9,439.4,359.9,437.1,361.2z"/>
<path class="st9" d="M425.1,388.2l-50.5,29.1c-2.3,1.3-5.3,0.5-6.6-1.8l0,0c-1.3-2.3-0.5-5.3,1.8-6.6l50.5-29.1
	c2.3-1.3,5.3-0.5,6.6,1.8l0,0C428.1,383.8,427.3,386.9,425.1,388.2z"/>
<path class="st9" d="M412.1,597.2l-17.5,10.1c-2.3,1.3-5.3,0.5-6.6-1.8l0,0c-1.3-2.3-0.5-5.3,1.8-6.6l17.5-10.1
	c2.3-1.3,5.3-0.5,6.6,1.8l0,0C415.3,592.9,414.5,595.9,412.1,597.2z"/>
<path class="st9" d="M456.1,642.5l-14.5,8.3c-2.3,1.3-5.3,0.5-6.6-1.8l0,0c-1.3-2.3-0.5-5.3,1.8-6.6l14.5-8.4
	c2.3-1.3,5.3-0.5,6.6,1.8l0,0C459.2,638.2,458.4,641.2,456.1,642.5z"/>
</svg>
