<?xml version="1.0" encoding="UTF-8"?>
<svg enable-background="new 0 0 1000 1000" version="1.1" viewBox="0 0 1e3 1e3" xml:space="preserve" xmlns="http://www.w3.org/2000/svg">
<style type="text/css">
	.st0{fill:#D9B9FF;}
	.st1{fill:none;stroke:#BB86F9;stroke-width:20;stroke-miterlimit:10;}
	.st2{fill:url(#s);stroke:url(#h);stroke-width:3;stroke-miterlimit:10;}
	.st3{fill:#333333;stroke:url(#g);stroke-width:3;stroke-miterlimit:10;}
	.st4{fill:url(#f);stroke:url(#e);stroke-width:3;stroke-miterlimit:10;}
	.st5{fill:#FFFFFF;stroke:url(#d);stroke-width:3;stroke-miterlimit:10;}
	.st6{fill:url(#c);stroke:url(#b);stroke-width:3;stroke-miterlimit:10;}
	.st7{fill:#333333;stroke:url(#a);stroke-width:3;stroke-miterlimit:10;}
	.st8{fill:url(#ac);stroke:url(#ab);stroke-width:3;stroke-miterlimit:10;}
	.st9{fill:#666666;}
	.st10{fill:url(#aa);stroke:url(#z);stroke-width:3;stroke-miterlimit:10;}
	.st11{fill:url(#y);stroke:url(#x);stroke-width:3;stroke-linejoin:round;stroke-miterlimit:10;}
	.st12{fill:#333333;stroke:url(#w);stroke-width:3;stroke-miterlimit:10;}
	.st13{fill:url(#v);stroke:#FFFFFF;stroke-width:3;stroke-linejoin:round;stroke-miterlimit:10;}
	.st14{fill:#333333;stroke:url(#u);stroke-width:3;stroke-miterlimit:10;}
	.st15{fill:url(#t);stroke:url(#r);stroke-width:3;stroke-miterlimit:10;}
	.st16{fill:#333333;stroke:url(#q);stroke-width:3;stroke-miterlimit:10;}
	.st17{fill:url(#p);stroke:url(#o);stroke-width:3;stroke-miterlimit:10;}
	.st18{fill:url(#n);stroke:url(#m);stroke-width:3;stroke-miterlimit:10;}
	.st19{fill:#333333;stroke:url(#l);stroke-width:3;stroke-miterlimit:10;}
	.st20{fill:#333333;stroke:url(#k);stroke-width:3;stroke-miterlimit:10;}
	.st21{fill:#333333;stroke:url(#j);stroke-width:3;stroke-miterlimit:10;}
	.st22{fill:#333333;stroke:url(#i);stroke-width:3;stroke-miterlimit:10;}
</style>
<circle class="st0" cx="500" cy="500" r="421.4"/>
<circle class="st1" cx="380.3" cy="472.1" r="322"/>
<linearGradient id="s" x1="264.69" x2="755.76" y1="933.91" y2="933.91" gradientTransform="translate(0 -498)" gradientUnits="userSpaceOnUse">
	<stop stop-color="#55D1FF" offset=".0531"/>
	<stop stop-color="#2A5BFF" offset=".8212"/>
</linearGradient>
<linearGradient id="h" x1="263.19" x2="757.26" y1="933.91" y2="933.91" gradientTransform="translate(0 -498)" gradientUnits="userSpaceOnUse">
	<stop stop-color="#55D1FF" offset=".0531"/>
	<stop stop-color="#2A5BFF" offset=".8212"/>
</linearGradient>
<path class="st2" d="m745.9 577.5h-471.4c-5.4 0-9.9-4.4-9.9-9.9v-263.4c0-5.4 4.4-9.9 9.9-9.9h471.4c5.4 0 9.9 4.4 9.9 9.9v263.4c0 5.4-4.5 9.9-9.9 9.9z"/>
<linearGradient id="g" x1="270.6" x2="748.72" y1="935.62" y2="935.62" gradientTransform="translate(0 -498)" gradientUnits="userSpaceOnUse">
	<stop stop-color="#55D1FF" offset=".0531"/>
	<stop stop-color="#2A5BFF" offset=".8212"/>
</linearGradient>
<path class="st3" d="m740.4 571.8h-461.5c-3.8 0-6.8-3.1-6.8-6.8v-254.7c0-3.8 3.1-6.8 6.8-6.8h461.4c3.8 0 6.8 3.1 6.8 6.8v254.7c0.1 3.7-3 6.8-6.7 6.8z"/>


		<linearGradient id="f" x1="632.14" x2="693.67" y1="1156.7" y2="1156.7" gradientTransform="translate(0 -498)" gradientUnits="userSpaceOnUse">
		<stop stop-color="#55D1FF" offset=".0531"/>
		<stop stop-color="#2A5BFF" offset=".8212"/>
	</linearGradient>

		<linearGradient id="e" x1="630.64" x2="695.17" y1="1156.7" y2="1156.7" gradientTransform="translate(0 -498)" gradientUnits="userSpaceOnUse">
		<stop stop-color="#55D1FF" offset=".0531"/>
		<stop stop-color="#2A5BFF" offset=".8212"/>
	</linearGradient>
	<ellipse class="st4" cx="662.9" cy="658.7" rx="30.8" ry="7.1"/>

		<linearGradient id="d" x1="655.14" x2="671.24" y1="1139.6" y2="1139.6" gradientTransform="translate(0 -498)" gradientUnits="userSpaceOnUse">
		<stop stop-color="#55D1FF" offset=".0531"/>
		<stop stop-color="#2A5BFF" offset=".8212"/>
	</linearGradient>
	<path class="st5" d="m663.2 656.7c-3.6 0-6.6-3-6.6-6.6v-17.1c0-3.6 3-6.6 6.6-6.6s6.6 3 6.6 6.6v17.1c-0.1 3.6-3 6.6-6.6 6.6z"/>


			<linearGradient id="c" x1="559.39" x2="766.64" y1="1124.3" y2="1124.3" gradientTransform="translate(0 -498)" gradientUnits="userSpaceOnUse">
			<stop stop-color="#55D1FF" offset=".0531"/>
			<stop stop-color="#2A5BFF" offset=".8212"/>
		</linearGradient>

			<linearGradient id="b" x1="583.98" x2="743.21" y1="1168.2" y2="1076.2" gradientTransform="translate(0 -498)" gradientUnits="userSpaceOnUse">
			<stop stop-color="#55D1FF" offset=".0531"/>
			<stop stop-color="#2A5BFF" offset=".8212"/>
		</linearGradient>
		<path class="st6" d="m566.2 629.6h193.6c3.6 0 6.7-2.9 6.8-6.6h-207.2c0.2 3.7 3.2 6.6 6.8 6.6z"/>

			<linearGradient id="a" x1="557.89" x2="768.09" y1="1072.1" y2="1072.1" gradientTransform="translate(0 -498)" gradientUnits="userSpaceOnUse">
			<stop stop-color="#55D1FF" offset=".0531"/>
			<stop stop-color="#2A5BFF" offset=".8212"/>
		</linearGradient>
		<path class="st7" d="m559.4 526.9v95.8 0.3h207.2v-0.3-97.7h-207.2v1.9"/>

			<linearGradient id="ac" x1="559.39" x2="766.64" y1="1019.5" y2="1019.5" gradientTransform="translate(0 -498)" gradientUnits="userSpaceOnUse">
			<stop stop-color="#55D1FF" offset=".0531"/>
			<stop stop-color="#2A5BFF" offset=".8212"/>
		</linearGradient>

			<linearGradient id="ab" x1="557.89" x2="768.14" y1="1019.5" y2="1019.5" gradientTransform="translate(0 -498)" gradientUnits="userSpaceOnUse">
			<stop stop-color="#55D1FF" offset=".0531"/>
			<stop stop-color="#2A5BFF" offset=".8212"/>
		</linearGradient>
		<path class="st8" d="m766.6 524.8c0-3.8-3.1-6.8-6.8-6.8h-193.6c-3.8 0-6.8 3.1-6.8 6.8v0.3h207.3l-0.1-0.3z"/>

	<path class="st9" d="m636.6 544.9-39.5 22.8c-2.3 1.3-5.3 0.5-6.6-1.8s-0.5-5.3 1.8-6.6l39.5-22.8c2.3-1.3 5.3-0.5 6.6 1.8s0.5 5.2-1.8 6.6z"/>
	<path class="st9" d="m627 566.3-20.2 11.7c-2.3 1.3-5.3 0.5-6.6-1.8s-0.5-5.3 1.8-6.6l20.2-11.7c2.3-1.3 5.3-0.5 6.6 1.8 1.2 2.2 0.4 5.2-1.8 6.6z"/>




			<linearGradient id="aa" x1="463.85" x2="590.78" y1="1132.7" y2="1132.7" gradientTransform="translate(0 -498)" gradientUnits="userSpaceOnUse">
			<stop stop-color="#55D1FF" offset=".0531"/>
			<stop stop-color="#2A5BFF" offset=".8212"/>
		</linearGradient>

			<linearGradient id="z" x1="462.35" x2="592.28" y1="1132.7" y2="1132.7" gradientTransform="translate(0 -498)" gradientUnits="userSpaceOnUse">
			<stop stop-color="#55D1FF" offset=".0531"/>
			<stop stop-color="#2A5BFF" offset=".8212"/>
		</linearGradient>
		<path class="st10" d="m583.9 674.8h-113.2c-3.8 0-6.8-3.1-6.8-6.8v-66.6c0-3.8 3.1-6.8 6.8-6.8h113.3c3.8 0 6.8 3.1 6.8 6.8v66.6c0 3.8-3.1 6.8-6.9 6.8z"/>

			<linearGradient id="y" x1="439.58" x2="614.59" y1="1190.1" y2="1190.1" gradientTransform="translate(0 -498)" gradientUnits="userSpaceOnUse">
			<stop stop-color="#55D1FF" offset=".0531"/>
			<stop stop-color="#2A5BFF" offset=".8212"/>
		</linearGradient>

			<linearGradient id="x" x1="438.08" x2="616.09" y1="1190.1" y2="1190.1" gradientTransform="translate(0 -498)" gradientUnits="userSpaceOnUse">
			<stop stop-color="#55D1FF" offset=".0531"/>
			<stop stop-color="#2A5BFF" offset=".8212"/>
		</linearGradient>
		<polygon class="st11" points="463.9 674.8 439.6 709.4 614.6 709.4 590.8 674.8"/>


		<linearGradient id="w" x1="462.58" x2="592.05" y1="1132.2" y2="1132.2" gradientTransform="translate(0 -498)" gradientUnits="userSpaceOnUse">
		<stop stop-color="#55D1FF" offset=".0531"/>
		<stop stop-color="#2A5BFF" offset=".8212"/>
	</linearGradient>
	<rect class="st12" x="464.1" y="601.4" width="126.5" height="65.5"/>
	<path class="st9" d="m510.2 615.7-20.3 11.7c-2.3 1.3-5.3 0.5-6.6-1.8s-0.5-5.3 1.8-6.6l20.3-11.7c2.3-1.3 5.3-0.5 6.6 1.8s0.5 5.3-1.8 6.6z"/>
	<path class="st9" d="m508.3 631-6.8 4c-2.3 1.3-5.3 0.5-6.6-1.8s-0.5-5.3 1.8-6.6l6.8-4c2.3-1.3 5.3-0.5 6.6 1.8 1.3 2.2 0.5 5.2-1.8 6.6z"/>

		<linearGradient id="v" x1="456.9" x2="597.1" y1="1190.2" y2="1190.2" gradientTransform="translate(0 -498)" gradientUnits="userSpaceOnUse">
		<stop stop-color="#55D1FF" offset=".0531"/>
		<stop stop-color="#2A5BFF" offset=".8212"/>
	</linearGradient>
	<polygon class="st13" points="476.3 679.7 456.9 704.8 597.1 704.8 578 679.7"/>



		<linearGradient id="u" x1="378.84" x2="454.76" y1="1125.6" y2="1125.6" gradientTransform="translate(0 -498)" gradientUnits="userSpaceOnUse">
		<stop stop-color="#55D1FF" offset=".0531"/>
		<stop stop-color="#2A5BFF" offset=".8212"/>
	</linearGradient>
	<path class="st14" d="m446.4 673.2h-59.2c-3.8 0-6.8-3.1-6.8-6.8v-77.5c0-3.8 3.1-6.8 6.8-6.8h59.2c3.8 0 6.8 3.1 6.8 6.8v77.5c0.1 3.7-3 6.8-6.8 6.8z"/>

		<linearGradient id="t" x1="415.09" x2="418.51" y1="1164.3" y2="1164.3" gradientTransform="translate(0 -498)" gradientUnits="userSpaceOnUse">
		<stop stop-color="#55D1FF" offset=".0531"/>
		<stop stop-color="#2A5BFF" offset=".8212"/>
	</linearGradient>

		<linearGradient id="r" x1="413.59" x2="420.01" y1="1164.3" y2="1164.3" gradientTransform="translate(0 -498)" gradientUnits="userSpaceOnUse">
		<stop stop-color="#55D1FF" offset=".0531"/>
		<stop stop-color="#2A5BFF" offset=".8212"/>
	</linearGradient>
	<circle class="st15" cx="416.8" cy="666.3" r="1.7"/>



		<linearGradient id="q" x1="428.97" x2="466.72" y1="1149.8" y2="1149.8" gradientTransform="translate(0 -498)" gradientUnits="userSpaceOnUse">
		<stop stop-color="#55D1FF" offset=".0531"/>
		<stop stop-color="#2A5BFF" offset=".8212"/>
	</linearGradient>
	<path class="st16" d="m458.4 684h-21.1c-3.8 0-6.8-3.1-6.8-6.8v-50.7c0-3.8 3.1-6.8 6.8-6.8h21.1c3.8 0 6.8 3.1 6.8 6.8v50.7c0 3.7-3.1 6.8-6.8 6.8z"/>

		<linearGradient id="p" x1="442.43" x2="452.69" y1="1124.5" y2="1124.5" gradientTransform="translate(0 -498)" gradientUnits="userSpaceOnUse">
		<stop stop-color="#55D1FF" offset=".0531"/>
		<stop stop-color="#2A5BFF" offset=".8212"/>
	</linearGradient>

		<linearGradient id="o" x1="440.93" x2="454.19" y1="1124.5" y2="1124.5" gradientTransform="translate(0 -498)" gradientUnits="userSpaceOnUse">
		<stop stop-color="#55D1FF" offset=".0531"/>
		<stop stop-color="#2A5BFF" offset=".8212"/>
	</linearGradient>
	<path class="st17" d="m451 628.2h-6.8c-0.9 0-1.7-0.7-1.7-1.7s0.8-1.7 1.7-1.7h6.8c0.9 0 1.7 0.7 1.7 1.7 0 0.9-0.8 1.7-1.7 1.7z"/>

<linearGradient id="n" x1="233.36" x2="355.84" y1="1079.8" y2="1079.8" gradientTransform="translate(0 -498)" gradientUnits="userSpaceOnUse">
	<stop stop-color="#55D1FF" offset=".0531"/>
	<stop stop-color="#2A5BFF" offset=".8212"/>
</linearGradient>
<linearGradient id="m" x1="231.86" x2="357.34" y1="1079.8" y2="1079.8" gradientTransform="translate(0 -498)" gradientUnits="userSpaceOnUse">
	<stop stop-color="#55D1FF" offset=".0531"/>
	<stop stop-color="#2A5BFF" offset=".8212"/>
</linearGradient>
<path class="st18" d="m349 691.4h-108.8c-3.8 0-6.8-3.1-6.8-6.8v-205.7c0-3.8 3.1-6.8 6.8-6.8h108.8c3.8 0 6.8 3.1 6.8 6.8v205.7c0 3.7-3 6.8-6.8 6.8z"/>
<linearGradient id="l" x1="251.8" x2="337.97" y1="1028.2" y2="1028.2" gradientTransform="translate(0 -498)" gradientUnits="userSpaceOnUse">
	<stop stop-color="#55D1FF" offset=".0531"/>
	<stop stop-color="#2A5BFF" offset=".8212"/>
</linearGradient>
<circle class="st19" cx="294.9" cy="530.2" r="41.6"/>
<linearGradient id="k" x1="251.8" x2="337.97" y1="1131.3" y2="1131.3" gradientTransform="translate(0 -498)" gradientUnits="userSpaceOnUse">
	<stop stop-color="#55D1FF" offset=".0531"/>
	<stop stop-color="#2A5BFF" offset=".8212"/>
</linearGradient>
<circle class="st20" cx="294.9" cy="633.3" r="41.6"/>
<linearGradient id="j" x1="263.19" x2="326.01" y1="1027.9" y2="1027.9" gradientTransform="translate(0 -498)" gradientUnits="userSpaceOnUse">
	<stop stop-color="#55D1FF" offset=".0531"/>
	<stop stop-color="#2A5BFF" offset=".8212"/>
</linearGradient>
<circle class="st21" cx="294.6" cy="529.9" r="29.9"/>
<linearGradient id="i" x1="263.19" x2="326.01" y1="1131" y2="1131" gradientTransform="translate(0 -498)" gradientUnits="userSpaceOnUse">
	<stop stop-color="#55D1FF" offset=".0531"/>
	<stop stop-color="#2A5BFF" offset=".8212"/>
</linearGradient>
<circle class="st22" cx="294.6" cy="633" r="29.9"/>
<path class="st9" d="m437.1 361.2-81.9 47.3c-2.3 1.3-5.3 0.5-6.6-1.8s-0.5-5.3 1.8-6.6l81.9-47.3c2.3-1.3 5.3-0.5 6.6 1.8s0.5 5.3-1.8 6.6z"/>
<path class="st9" d="m425.1 388.2-50.5 29.1c-2.3 1.3-5.3 0.5-6.6-1.8s-0.5-5.3 1.8-6.6l50.5-29.1c2.3-1.3 5.3-0.5 6.6 1.8 1.2 2.2 0.4 5.3-1.8 6.6z"/>
<path class="st9" d="m412.1 597.2-17.5 10.1c-2.3 1.3-5.3 0.5-6.6-1.8s-0.5-5.3 1.8-6.6l17.5-10.1c2.3-1.3 5.3-0.5 6.6 1.8 1.4 2.3 0.6 5.3-1.8 6.6z"/>
<path class="st9" d="m456.1 642.5-14.5 8.3c-2.3 1.3-5.3 0.5-6.6-1.8s-0.5-5.3 1.8-6.6l14.5-8.4c2.3-1.3 5.3-0.5 6.6 1.8 1.3 2.4 0.5 5.4-1.8 6.7z"/>
</svg>
