<svg id="fc35695a-9bc5-4d55-a70c-3bf785a41134" data-name="Camada 1" xmlns="http://www.w3.org/2000/svg" xmlns:xlink="http://www.w3.org/1999/xlink" viewBox="0 0 873.1 842.8"><defs><linearGradient id="e92ff22c-2f38-49f0-80c6-1ce8863c0166" x1="264.6" y1="68.1" x2="755.8" y2="68.1" gradientTransform="matrix(1, 0, 0, -1, 0, 504)" gradientUnits="userSpaceOnUse"><stop offset="0.05" stop-color="#55d1ff"/><stop offset="0.82" stop-color="#2a5bff"/></linearGradient><linearGradient id="ac94a49a-7fbd-4373-b3f8-c1beb2235511" x1="263.1" y1="68.1" x2="757.3" y2="68.1" xlink:href="#e92ff22c-2f38-49f0-80c6-1ce8863c0166"/><linearGradient id="bb814c98-fd1c-4029-a975-c47f291bfe1f" x1="270.6" y1="66.35" x2="748.6" y2="66.35" xlink:href="#e92ff22c-2f38-49f0-80c6-1ce8863c0166"/><linearGradient id="ab5d6cd9-4d45-49f3-84fc-e40153e7c87c" x1="632.1" y1="-154.7" x2="693.63" y2="-154.7" gradientTransform="matrix(1, 0, 0, -1, -48.3, 425.4)" xlink:href="#e92ff22c-2f38-49f0-80c6-1ce8863c0166"/><linearGradient id="a2da786e-e85c-491b-b149-2953c55d2b52" x1="630.6" y1="-154.7" x2="695.13" y2="-154.7" gradientTransform="matrix(1, 0, 0, -1, -48.3, 425.4)" xlink:href="#e92ff22c-2f38-49f0-80c6-1ce8863c0166"/><linearGradient id="eeb554c1-2acd-4fe8-9ced-6dcfbfa3c69f" x1="655.14" y1="-137.55" x2="671.24" y2="-137.55" xlink:href="#e92ff22c-2f38-49f0-80c6-1ce8863c0166"/><linearGradient id="e7223621-b475-4eaa-90e1-228e8af79a53" x1="559.4" y1="-122.3" x2="766.6" y2="-122.3" xlink:href="#e92ff22c-2f38-49f0-80c6-1ce8863c0166"/><linearGradient id="ba28ebb2-fd97-459b-a156-eb65183f4951" x1="584.02" y1="-166.15" x2="743.13" y2="-74.22" xlink:href="#e92ff22c-2f38-49f0-80c6-1ce8863c0166"/><linearGradient id="b37c9a88-d145-4bbb-b4e1-53fa25565ee6" x1="557.9" y1="-70" x2="768.1" y2="-70" xlink:href="#e92ff22c-2f38-49f0-80c6-1ce8863c0166"/><linearGradient id="f05e95ef-56eb-4a1f-9718-ca37a93db284" x1="559.4" y1="-17.55" x2="766.7" y2="-17.55" xlink:href="#e92ff22c-2f38-49f0-80c6-1ce8863c0166"/><linearGradient id="fedb24d2-dd74-4cb4-a9a0-080fe96034d8" x1="557.9" y1="-17.55" x2="768.15" y2="-17.55" xlink:href="#e92ff22c-2f38-49f0-80c6-1ce8863c0166"/><linearGradient id="bf856e95-d190-47e0-babc-2b707a03ab85" x1="463.9" y1="-130.7" x2="590.8" y2="-130.7" xlink:href="#e92ff22c-2f38-49f0-80c6-1ce8863c0166"/><linearGradient id="f2a6bd61-01f8-47e9-a173-046e0afff61c" x1="462.4" y1="-130.7" x2="592.3" y2="-130.7" xlink:href="#e92ff22c-2f38-49f0-80c6-1ce8863c0166"/><linearGradient id="b826fc14-7956-4859-89f5-85a130b74b6a" x1="439.6" y1="-188.1" x2="614.6" y2="-188.1" gradientTransform="matrix(1, 0, 0, -1, -48.3, 425.4)" xlink:href="#e92ff22c-2f38-49f0-80c6-1ce8863c0166"/><linearGradient id="bcae1f18-2d4c-4b08-86fb-f775de6b6852" x1="438.1" y1="-188.1" x2="616.1" y2="-188.1" gradientTransform="matrix(1, 0, 0, -1, -48.3, 425.4)" xlink:href="#e92ff22c-2f38-49f0-80c6-1ce8863c0166"/><linearGradient id="e3fb2b44-4e04-421e-ac9d-fa5f7deb5f5c" x1="462.6" y1="-130.15" x2="592.1" y2="-130.15" gradientTransform="matrix(1, 0, 0, -1, -48.3, 425.4)" xlink:href="#e92ff22c-2f38-49f0-80c6-1ce8863c0166"/><linearGradient id="ac526072-dd9a-499d-b701-5d6f7bc6254c" x1="456.9" y1="-188.25" x2="597.1" y2="-188.25" gradientTransform="matrix(1, 0, 0, -1, -48.3, 425.4)" xlink:href="#e92ff22c-2f38-49f0-80c6-1ce8863c0166"/><linearGradient id="a6669598-94c0-49d6-ac6b-bb374140c6cb" x1="378.9" y1="-123.65" x2="454.82" y2="-123.65" xlink:href="#e92ff22c-2f38-49f0-80c6-1ce8863c0166"/><linearGradient id="a8f396c6-b541-4020-bb05-3a508ff162b6" x1="415.09" y1="-162.3" x2="418.51" y2="-162.3" gradientTransform="matrix(1, 0, 0, -1, -48.3, 425.4)" xlink:href="#e92ff22c-2f38-49f0-80c6-1ce8863c0166"/><linearGradient id="e4707c0b-61a4-4964-a7e5-cb60ba2d687d" x1="413.59" y1="-162.3" x2="420.01" y2="-162.3" gradientTransform="matrix(1, 0, 0, -1, -48.3, 425.4)" xlink:href="#e92ff22c-2f38-49f0-80c6-1ce8863c0166"/><linearGradient id="f655e707-55ba-4855-8b94-9cab8c2bc1ce" x1="429" y1="-147.85" x2="466.75" y2="-147.85" xlink:href="#e92ff22c-2f38-49f0-80c6-1ce8863c0166"/><linearGradient id="ba0b3f8c-7750-40e8-8f3f-a6d51201f40e" x1="442.43" y1="-122.5" x2="452.69" y2="-122.5" xlink:href="#e92ff22c-2f38-49f0-80c6-1ce8863c0166"/><linearGradient id="ace62cec-942a-466f-a49b-4ef2d86259ba" x1="440.93" y1="-122.5" x2="454.19" y2="-122.5" xlink:href="#e92ff22c-2f38-49f0-80c6-1ce8863c0166"/><linearGradient id="e02d4b93-2898-4d3c-8dbd-c0d0cf179e34" x1="233.4" y1="-77.75" x2="355.8" y2="-77.75" xlink:href="#e92ff22c-2f38-49f0-80c6-1ce8863c0166"/><linearGradient id="f6772b41-fa65-4329-91c3-b517fc779f71" x1="231.9" y1="-77.75" x2="357.3" y2="-77.75" xlink:href="#e92ff22c-2f38-49f0-80c6-1ce8863c0166"/><linearGradient id="ac7d8941-23db-4323-bc0a-06c98db315fa" x1="251.8" y1="-26.2" x2="338" y2="-26.2" gradientTransform="matrix(1, 0, 0, -1, -48.3, 425.4)" xlink:href="#e92ff22c-2f38-49f0-80c6-1ce8863c0166"/><linearGradient id="b69242f4-6c09-4e46-aa2e-18a06ba37e4d" x1="251.8" y1="-129.3" x2="338" y2="-129.3" gradientTransform="matrix(1, 0, 0, -1, -48.3, 425.4)" xlink:href="#e92ff22c-2f38-49f0-80c6-1ce8863c0166"/><linearGradient id="b8bf92f0-9a14-4c21-b90b-dfa959575766" x1="263.2" y1="-25.9" x2="326" y2="-25.9" gradientTransform="matrix(1, 0, 0, -1, -48.3, 425.4)" xlink:href="#e92ff22c-2f38-49f0-80c6-1ce8863c0166"/><linearGradient id="af53c9b9-9717-4261-af17-5fc30041e187" x1="263.2" y1="-129" x2="326" y2="-129" gradientTransform="matrix(1, 0, 0, -1, -48.3, 425.4)" xlink:href="#e92ff22c-2f38-49f0-80c6-1ce8863c0166"/></defs><circle cx="451.7" cy="421.4" r="421.4" style="fill:#d9b9ff"/><circle cx="332" cy="393.5" r="322" style="fill:none;stroke:#bb86f9;stroke-miterlimit:10;stroke-width:20px"/><path d="M745.9,577.5H274.5a9.92,9.92,0,0,1-9.9-9.9V304.2a9.92,9.92,0,0,1,9.9-9.9H745.9a9.92,9.92,0,0,1,9.9,9.9V567.6A10,10,0,0,1,745.9,577.5Z" transform="translate(-48.3 -78.6)" style="stroke-miterlimit:10;stroke-width:3px;fill:url(#e92ff22c-2f38-49f0-80c6-1ce8863c0166);stroke:url(#ac94a49a-7fbd-4373-b3f8-c1beb2235511)"/><path d="M740.4,571.8H278.9a6.81,6.81,0,0,1-6.8-6.8V310.3a6.81,6.81,0,0,1,6.8-6.8H740.3a6.81,6.81,0,0,1,6.8,6.8V565A6.72,6.72,0,0,1,740.4,571.8Z" transform="translate(-48.3 -78.6)" style="fill:#333;stroke-miterlimit:10;stroke-width:3px;stroke:url(#bb814c98-fd1c-4029-a975-c47f291bfe1f)"/><ellipse cx="614.6" cy="580.1" rx="30.8" ry="7.1" style="stroke-miterlimit:10;stroke-width:3px;fill:url(#ab5d6cd9-4d45-49f3-84fc-e40153e7c87c);stroke:url(#a2da786e-e85c-491b-b149-2953c55d2b52)"/><path d="M663.2,656.7a6.66,6.66,0,0,1-6.6-6.6V633a6.6,6.6,0,1,1,13.2,0v17.1A6.73,6.73,0,0,1,663.2,656.7Z" transform="translate(-48.3 -78.6)" style="fill:#fff;stroke-miterlimit:10;stroke-width:3px;stroke:url(#eeb554c1-2acd-4fe8-9ced-6dcfbfa3c69f)"/><path d="M566.2,629.6H759.8a6.83,6.83,0,0,0,6.8-6.6H559.4A6.9,6.9,0,0,0,566.2,629.6Z" transform="translate(-48.3 -78.6)" style="stroke-miterlimit:10;stroke-width:3px;fill:url(#e7223621-b475-4eaa-90e1-228e8af79a53);stroke:url(#ba28ebb2-fd97-459b-a156-eb65183f4951)"/><path d="M559.4,526.9V623H766.6V525H559.4v1.9" transform="translate(-48.3 -78.6)" style="fill:#333;stroke-miterlimit:10;stroke-width:3px;stroke:url(#b37c9a88-d145-4bbb-b4e1-53fa25565ee6)"/><path d="M766.6,524.8a6.81,6.81,0,0,0-6.8-6.8H566.2a6.81,6.81,0,0,0-6.8,6.8v.3H766.7Z" transform="translate(-48.3 -78.6)" style="stroke-miterlimit:10;stroke-width:3px;fill:url(#f05e95ef-56eb-4a1f-9718-ca37a93db284);stroke:url(#fedb24d2-dd74-4cb4-a9a0-080fe96034d8)"/><path d="M636.6,544.9l-39.5,22.8a4.84,4.84,0,0,1-4.8-8.4l39.5-22.8a4.84,4.84,0,0,1,4.8,8.4Z" transform="translate(-48.3 -78.6)" style="fill:#666"/><path d="M627,566.3,606.8,578a4.84,4.84,0,0,1-4.8-8.4l20.2-11.7a4.88,4.88,0,0,1,6.6,1.8A5.12,5.12,0,0,1,627,566.3Z" transform="translate(-48.3 -78.6)" style="fill:#666"/><path d="M583.9,674.8H470.7a6.81,6.81,0,0,1-6.8-6.8V601.4a6.81,6.81,0,0,1,6.8-6.8H584a6.81,6.81,0,0,1,6.8,6.8V668a6.83,6.83,0,0,1-6.9,6.8Z" transform="translate(-48.3 -78.6)" style="stroke-miterlimit:10;stroke-width:3px;fill:url(#bf856e95-d190-47e0-babc-2b707a03ab85);stroke:url(#f2a6bd61-01f8-47e9-a173-046e0afff61c)"/><polygon points="415.6 596.2 391.3 630.8 566.3 630.8 542.5 596.2 415.6 596.2" style="stroke-linejoin:round;stroke-width:3px;fill:url(#b826fc14-7956-4859-89f5-85a130b74b6a);stroke:url(#bcae1f18-2d4c-4b08-86fb-f775de6b6852)"/><rect x="415.8" y="522.8" width="126.5" height="65.5" style="fill:#333;stroke-miterlimit:10;stroke-width:3px;stroke:url(#e3fb2b44-4e04-421e-ac9d-fa5f7deb5f5c)"/><path d="M510.2,615.7l-20.3,11.7a4.84,4.84,0,0,1-4.8-8.4l20.3-11.7a4.84,4.84,0,1,1,4.8,8.4Z" transform="translate(-48.3 -78.6)" style="fill:#666"/><path d="M508.3,631l-6.8,4a4.84,4.84,0,1,1-4.8-8.4l6.8-4a4.84,4.84,0,0,1,4.8,8.4Z" transform="translate(-48.3 -78.6)" style="fill:#666"/><polygon points="428 601.1 408.6 626.2 548.8 626.2 529.7 601.1 428 601.1" style="stroke:#fff;stroke-linejoin:round;stroke-width:3px;fill:url(#ac526072-dd9a-499d-b701-5d6f7bc6254c)"/><path d="M446.4,673.2H387.2a6.81,6.81,0,0,1-6.8-6.8V588.9a6.81,6.81,0,0,1,6.8-6.8h59.2a6.81,6.81,0,0,1,6.8,6.8v77.5A6.74,6.74,0,0,1,446.4,673.2Z" transform="translate(-48.3 -78.6)" style="fill:#333;stroke-miterlimit:10;stroke-width:3px;stroke:url(#a6669598-94c0-49d6-ac6b-bb374140c6cb)"/><circle cx="368.5" cy="587.7" r="1.7" style="stroke-miterlimit:10;stroke-width:3px;fill:url(#a8f396c6-b541-4020-bb05-3a508ff162b6);stroke:url(#e4707c0b-61a4-4964-a7e5-cb60ba2d687d)"/><path d="M458.4,684H437.3a6.81,6.81,0,0,1-6.8-6.8V626.5a6.81,6.81,0,0,1,6.8-6.8h21.1a6.81,6.81,0,0,1,6.8,6.8v50.7A6.87,6.87,0,0,1,458.4,684Z" transform="translate(-48.3 -78.6)" style="fill:#333;stroke-miterlimit:10;stroke-width:3px;stroke:url(#f655e707-55ba-4855-8b94-9cab8c2bc1ce)"/><path d="M451,628.2h-6.8a1.7,1.7,0,1,1,0-3.4H451a1.69,1.69,0,0,1,1.7,1.7A1.75,1.75,0,0,1,451,628.2Z" transform="translate(-48.3 -78.6)" style="stroke-miterlimit:10;stroke-width:3px;fill:url(#ba0b3f8c-7750-40e8-8f3f-a6d51201f40e);stroke:url(#ace62cec-942a-466f-a49b-4ef2d86259ba)"/><path d="M349,691.4H240.2a6.81,6.81,0,0,1-6.8-6.8V478.9a6.81,6.81,0,0,1,6.8-6.8H349a6.81,6.81,0,0,1,6.8,6.8V684.6A6.81,6.81,0,0,1,349,691.4Z" transform="translate(-48.3 -78.6)" style="stroke-miterlimit:10;stroke-width:3px;fill:url(#e02d4b93-2898-4d3c-8dbd-c0d0cf179e34);stroke:url(#f6772b41-fa65-4329-91c3-b517fc779f71)"/><circle cx="246.6" cy="451.6" r="41.6" style="fill:#333;stroke-miterlimit:10;stroke-width:3px;stroke:url(#ac7d8941-23db-4323-bc0a-06c98db315fa)"/><circle cx="246.6" cy="554.7" r="41.6" style="fill:#333;stroke-miterlimit:10;stroke-width:3px;stroke:url(#b69242f4-6c09-4e46-aa2e-18a06ba37e4d)"/><circle cx="246.3" cy="451.3" r="29.9" style="fill:#333;stroke-miterlimit:10;stroke-width:3px;stroke:url(#b8bf92f0-9a14-4c21-b90b-dfa959575766)"/><circle cx="246.3" cy="554.4" r="29.9" style="fill:#333;stroke-miterlimit:10;stroke-width:3px;stroke:url(#af53c9b9-9717-4261-af17-5fc30041e187)"/><path d="M437.1,361.2l-81.9,47.3a4.84,4.84,0,0,1-4.8-8.4l81.9-47.3a4.84,4.84,0,1,1,4.8,8.4Z" transform="translate(-48.3 -78.6)" style="fill:#666"/><path d="M425.1,388.2l-50.5,29.1a4.84,4.84,0,1,1-4.8-8.4l50.5-29.1a4.88,4.88,0,0,1,6.6,1.8A5.1,5.1,0,0,1,425.1,388.2Z" transform="translate(-48.3 -78.6)" style="fill:#666"/><path d="M412.1,597.2l-17.5,10.1a4.84,4.84,0,0,1-4.8-8.4l17.5-10.1a4.88,4.88,0,0,1,6.6,1.8A4.71,4.71,0,0,1,412.1,597.2Z" transform="translate(-48.3 -78.6)" style="fill:#666"/><path d="M456.1,642.5l-14.5,8.3a4.84,4.84,0,1,1-4.8-8.4l14.5-8.4a4.88,4.88,0,0,1,6.6,1.8A5,5,0,0,1,456.1,642.5Z" transform="translate(-48.3 -78.6)" style="fill:#666"/></svg>