<?xml version="1.0" encoding="utf-8"?>
<!-- Generator: Adobe Illustrator 25.0.0, SVG Export Plug-In . SVG Version: 6.00 Build 0)  -->
<svg version="1.1" id="Camada_1" xmlns="http://www.w3.org/2000/svg" xmlns:xlink="http://www.w3.org/1999/xlink" x="0px" y="0px"
	 viewBox="0 0 256 256" style="enable-background:new 0 0 256 256;" xml:space="preserve">
<g>
	<g>
		<path d="M4.43,20.96h21.03v63.22h28.81V20.96h21.03v156.83H54.28v-74.27H25.46v74.27H4.43V20.96z"/>
		<path d="M164.82,177.78h-16.5c-0.56-2.68-1.03-9.11-1.2-12.53c-4.18,10.94-13.2,14.74-23.36,14.74c-22.49,0-29.8-16.41-29.8-42.36
			V61.95c0-25.66,10.14-43.21,35.67-43.21c30.58,0,34.69,22.15,34.69,40.29v4.63H143.3v-5.48c0-9.41-1.24-20.27-13.73-20.27
			c-9.69,0-14.17,6.43-14.17,21.19v80.48c0,13.77,3.8,21.72,13.68,21.72c12.13,0,14.64-10.67,14.64-28.43V109.1h-15.27V90.91h36.38
			V177.78z"/>
		<path d="M185.2,20.96h32.27c24.23,0,36.26,12.09,36.26,38.81v9.37c0,24.92-8.32,42.19-37.53,42.19h-9.97v66.45H185.2V20.96z
			 M206.23,93.97h7.76c16.22,0,18.8-9.69,18.8-25.42v-8c0-11.95-2.37-22.06-16.94-22.06h-9.62V93.97z"/>
	</g>
</g>
<g>
	<g>
		<path d="M19.96,216.51H8.65v12.62h12.95l-0.89,4.51H1.81v-36.59H20.6v4.55H8.65V212h11.31V216.51z"/>
		<path d="M45.24,224.49v0.38c0,4.99-1.77,9.22-10.45,9.22c-8.48,0-10.22-4.12-10.22-9.89V214c0-4.67,2.25-8.95,10.58-8.95
			c8.95,0,10.09,4.67,10.09,8.27v1.09h-6.76v-1.1c0-2.33-0.53-4.09-3.46-4.09c-2.62,0-3.58,1.43-3.58,4.21v12.15
			c0,2.2,0.57,4.34,3.53,4.34c2.76,0,3.5-1.46,3.5-4.28v-1.15H45.24z"/>
		<path d="M71.06,213.86v11.22c0,6.06-4.12,9-11.06,9c-7.11,0-10.89-2.96-10.89-8.92v-11.48c0-5.81,4.48-8.63,11.12-8.63
			C67.12,205.05,71.06,208.16,71.06,213.86z M55.97,213.63v11.71c0,2.61,1.16,4.39,4.15,4.39c2.79,0,4.07-1.43,4.07-4.47v-11.67
			c0-2.42-1.01-4.18-4.1-4.18C57.22,209.41,55.97,210.89,55.97,213.63z"/>
		<path d="M76.78,213.63c0-5.4,0-6.83-0.08-8.14h6.53c0.21,0.84,0.21,1.59,0.26,2.55c1.29-1.9,3.58-2.99,6.82-2.99
			c3.12,0,5.29,0.96,6.21,3.13c1.31-1.63,3.35-3.13,7.42-3.13c4.09,0,7.6,1.41,7.6,6.89v21.71h-6.84v-20.78
			c0-2.06-0.67-3.39-3.23-3.39c-3.14,0-3.86,1.87-3.86,4.76v19.41h-6.9v-20.6c0-2.76-1.07-3.56-3.27-3.56
			c-3.12,0-3.82,1.9-3.82,4.81v19.36h-6.84V213.63z"/>
		<path d="M118.41,213.63c0-5.4,0-6.83-0.08-8.14h6.53c0.21,0.84,0.21,1.59,0.26,2.55c1.29-1.9,3.58-2.99,6.82-2.99
			c3.12,0,5.29,0.96,6.21,3.13c1.31-1.63,3.35-3.13,7.42-3.13c4.09,0,7.6,1.41,7.6,6.89v21.71h-6.84v-20.78
			c0-2.06-0.67-3.39-3.23-3.39c-3.14,0-3.86,1.87-3.86,4.76v19.41h-6.9v-20.6c0-2.76-1.07-3.56-3.28-3.56
			c-3.12,0-3.82,1.9-3.82,4.81v19.36h-6.84V213.63z"/>
		<path d="M165.63,220.78v4.33c0,2.44,0.73,4.81,4.08,4.81c3.37,0,3.88-2.07,3.88-4.38v-0.17h6.68v0.16c0,3.08-0.96,8.56-10.45,8.56
			c-9.25,0-10.87-4.2-10.87-9.9v-9.75c0-4.03,1.86-9.38,10.89-9.38c8.05,0,10.56,4.04,10.56,9.36c0,1.6,0,4.75,0,6.37H165.63z
			 M173.83,216.88v-3.15c0-2.61-0.73-4.51-4.01-4.51c-3.01,0-4.13,1.66-4.13,4.53v3.13H173.83z"/>
		<path d="M185.87,215.05c0-4.62,0.05-6.84-0.08-9.56h6.5c0.08,0.62,0.21,2.82,0.21,4.49c1.51-3.67,4.94-4.87,8.5-4.9v6.05
			c-4.64,0.02-8.28,1.33-8.28,6.81v15.7h-6.84V215.05z"/>
		<path d="M224.38,224.49v0.38c0,4.99-1.76,9.22-10.45,9.22c-8.47,0-10.22-4.12-10.22-9.89V214c0-4.67,2.25-8.95,10.58-8.95
			c8.95,0,10.09,4.67,10.09,8.27v1.09h-6.76v-1.1c0-2.33-0.53-4.09-3.46-4.09c-2.62,0-3.58,1.43-3.58,4.21v12.15
			c0,2.2,0.57,4.34,3.53,4.34c2.76,0,3.5-1.46,3.5-4.28v-1.15H224.38z"/>
		<path d="M234.92,220.78v4.33c0,2.44,0.73,4.81,4.08,4.81c3.37,0,3.88-2.07,3.88-4.38v-0.17h6.68v0.16c0,3.08-0.96,8.56-10.45,8.56
			c-9.25,0-10.87-4.2-10.87-9.9v-9.75c0-4.03,1.86-9.38,10.89-9.38c8.05,0,10.56,4.04,10.56,9.36c0,1.6,0,4.75,0,6.37H234.92z
			 M243.11,216.88v-3.15c0-2.61-0.73-4.51-4.01-4.51c-3.01,0-4.13,1.66-4.13,4.53v3.13H243.11z"/>
	</g>
</g>
</svg>
