<svg id="b5e80735-da5d-42d9-9446-38101e2677c9" data-name="Camada 1" xmlns="http://www.w3.org/2000/svg" viewBox="0 0 252 215.3"><path d="M4.4,21h21V84.2H54.2V21h21V177.8h-21V103.5H25.5v74.3H4.5L4.4,21Z" transform="translate(-1.8 -18.8)" style="fill:#fff"/><path d="M164.8,177.8H148.3a112.94,112.94,0,0,1-1.2-12.5c-4.2,10.9-13.2,14.7-23.4,14.7-22.5,0-29.8-16.4-29.8-42.4V62c0-25.7,10.1-43.2,35.7-43.2,30.6,0,34.7,22.1,34.7,40.3v4.6h-21V58.2c0-9.4-1.2-20.3-13.7-20.3-9.7,0-14.2,6.4-14.2,21.2v80.5c0,13.8,3.8,21.7,13.7,21.7,12.1,0,14.6-10.7,14.6-28.4V109.1H128.4V90.9h36.4v86.9Z" transform="translate(-1.8 -18.8)" style="fill:#fff"/><path d="M185.2,21h32.3c24.2,0,36.3,12.1,36.3,38.8v9.4c0,24.9-8.3,42.2-37.5,42.2h-10v66.4h-21V21Zm21,73H214c16.2,0,18.8-9.7,18.8-25.4v-8c0-12-2.4-22.1-16.9-22.1h-9.6V94Z" transform="translate(-1.8 -18.8)" style="fill:#fff"/><path d="M20,216.5H8.6v12.6H21.5l-.9,4.5H1.8V197H20.6v4.6H8.6V212H20Z" transform="translate(-1.8 -18.8)" style="fill:#fff"/><path d="M45.2,224.5v.4c0,5-1.8,9.2-10.5,9.2-8.5,0-10.2-4.1-10.2-9.9V214c0-4.7,2.2-8.9,10.6-8.9,9,0,10.1,4.7,10.1,8.3v1.1H38.4v-1.1c0-2.3-.5-4.1-3.5-4.1-2.6,0-3.6,1.4-3.6,4.2v12.1c0,2.2.6,4.3,3.5,4.3s3.5-1.5,3.5-4.3v-1.1Z" transform="translate(-1.8 -18.8)" style="fill:#fff"/><path d="M71.1,213.9v11.2c0,6.1-4.1,9-11.1,9s-10.9-3-10.9-8.9V213.7c0-5.8,4.5-8.6,11.1-8.6C67.1,205.1,71.1,208.2,71.1,213.9ZM56,213.6v11.7c0,2.6,1.2,4.4,4.2,4.4,2.8,0,4.1-1.4,4.1-4.5V213.5c0-2.4-1-4.2-4.1-4.2S56,210.9,56,213.6Z" transform="translate(-1.8 -18.8)" style="fill:#fff"/><path d="M76.8,213.6c0-5.4,0-6.8-.1-8.1h6.5a18.64,18.64,0,0,1,.3,2.6c1.3-1.9,3.6-3,6.8-3s5.3,1,6.2,3.1c1.3-1.6,3.3-3.1,7.4-3.1s7.6,1.4,7.6,6.9v21.7h-6.8V212.9c0-2.1-.7-3.4-3.2-3.4-3.1,0-3.9,1.9-3.9,4.8v19.4H90.7V213c0-2.8-1.1-3.6-3.3-3.6-3.1,0-3.8,1.9-3.8,4.8v19.4H76.8v-20Z" transform="translate(-1.8 -18.8)" style="fill:#fff"/><path d="M118.4,213.6c0-5.4,0-6.8-.1-8.1h6.5a18.64,18.64,0,0,1,.3,2.6c1.3-1.9,3.6-3,6.8-3s5.3,1,6.2,3.1c1.3-1.6,3.4-3.1,7.4-3.1s7.6,1.4,7.6,6.9v21.7h-6.8V212.9c0-2.1-.7-3.4-3.2-3.4-3.1,0-3.9,1.9-3.9,4.8v19.4h-6.9V213c0-2.8-1.1-3.6-3.3-3.6-3.1,0-3.8,1.9-3.8,4.8v19.4h-6.8v-20Z" transform="translate(-1.8 -18.8)" style="fill:#fff"/><path d="M165.6,220.8v4.3c0,2.4.7,4.8,4.1,4.8s3.9-2.1,3.9-4.4v-.2h6.7v.2c0,3.1-1,8.6-10.4,8.6-9.2,0-10.9-4.2-10.9-9.9v-9.8c0-4,1.9-9.4,10.9-9.4,8.1,0,10.6,4,10.6,9.4v6.4Zm8.2-3.9v-3.1c0-2.6-.7-4.5-4-4.5-3,0-4.1,1.7-4.1,4.5v3.1Z" transform="translate(-1.8 -18.8)" style="fill:#fff"/><path d="M185.9,215.1c0-4.6.1-6.8-.1-9.6h6.5a44,44,0,0,1,.2,4.5c1.5-3.7,4.9-4.9,8.5-4.9v6.1c-4.6,0-8.3,1.3-8.3,6.8v15.7h-6.8V215.1Z" transform="translate(-1.8 -18.8)" style="fill:#fff"/><path d="M224.4,224.5v.4c0,5-1.8,9.2-10.4,9.2s-10.2-4.1-10.2-9.9V214c0-4.7,2.2-8.9,10.6-8.9,8.9,0,10.1,4.7,10.1,8.3v1.1h-6.8v-1.1c0-2.3-.5-4.1-3.5-4.1-2.6,0-3.6,1.4-3.6,4.2v12.1c0,2.2.6,4.3,3.5,4.3s3.5-1.5,3.5-4.3v-1.1Z" transform="translate(-1.8 -18.8)" style="fill:#fff"/><path d="M234.9,220.8v4.3c0,2.4.7,4.8,4.1,4.8s3.9-2.1,3.9-4.4v-.2h6.7v.2c0,3.1-1,8.6-10.4,8.6-9.2,0-10.9-4.2-10.9-9.9v-9.8c0-4,1.9-9.4,10.9-9.4,8.1,0,10.6,4,10.6,9.4v6.4Zm8.2-3.9v-3.1c0-2.6-.7-4.5-4-4.5-3,0-4.1,1.7-4.1,4.5v3.1Z" transform="translate(-1.8 -18.8)" style="fill:#fff"/></svg>