<?xml version="1.0" encoding="UTF-8"?>
<svg enable-background="new 0 0 256 256" version="1.1" viewBox="0 0 256 256" xml:space="preserve" xmlns="http://www.w3.org/2000/svg">
<style type="text/css">
	.st0{fill:#FFFFFF;}
</style>


		<path class="st0" d="M4.4,21h21v63.2h28.8V21h21v156.8h-21v-74.3H25.5v74.3h-21L4.4,21L4.4,21z"/>
		<path class="st0" d="m164.8 177.8h-16.5c-0.6-2.7-1-9.1-1.2-12.5-4.2 10.9-13.2 14.7-23.4 14.7-22.5 0-29.8-16.4-29.8-42.4v-75.6c0-25.7 10.1-43.2 35.7-43.2 30.6 0 34.7 22.1 34.7 40.3v4.6h-21v-5.5c0-9.4-1.2-20.3-13.7-20.3-9.7 0-14.2 6.4-14.2 21.2v80.5c0 13.8 3.8 21.7 13.7 21.7 12.1 0 14.6-10.7 14.6-28.4v-23.8h-15.3v-18.2h36.4v86.9z"/>
		<path class="st0" d="m185.2 21h32.3c24.2 0 36.3 12.1 36.3 38.8v9.4c0 24.9-8.3 42.2-37.5 42.2h-10v66.4h-21v-156.8h-0.1zm21 73h7.8c16.2 0 18.8-9.7 18.8-25.4v-8c0-12-2.4-22.1-16.9-22.1h-9.6v55.5h-0.1z"/>




		<path class="st0" d="M20,216.5H8.6v12.6h12.9l-0.9,4.5H1.8V197h18.8v4.6h-12V212H20V216.5z"/>
		<path class="st0" d="m45.2 224.5v0.4c0 5-1.8 9.2-10.5 9.2-8.5 0-10.2-4.1-10.2-9.9v-10.2c0-4.7 2.2-8.9 10.6-8.9 9 0 10.1 4.7 10.1 8.3v1.1h-6.8v-1.1c0-2.3-0.5-4.1-3.5-4.1-2.6 0-3.6 1.4-3.6 4.2v12.1c0 2.2 0.6 4.3 3.5 4.3 2.8 0 3.5-1.5 3.5-4.3v-1.1h6.9z"/>
		<path class="st0" d="m71.1 213.9v11.2c0 6.1-4.1 9-11.1 9-7.1 0-10.9-3-10.9-8.9v-11.5c0-5.8 4.5-8.6 11.1-8.6 6.9 0 10.9 3.1 10.9 8.8zm-15.1-0.3v11.7c0 2.6 1.2 4.4 4.2 4.4 2.8 0 4.1-1.4 4.1-4.5v-11.7c0-2.4-1-4.2-4.1-4.2-3 0.1-4.2 1.6-4.2 4.3z"/>
		<path class="st0" d="m76.8 213.6c0-5.4 0-6.8-0.1-8.1h6.5c0.2 0.8 0.2 1.6 0.3 2.6 1.3-1.9 3.6-3 6.8-3 3.1 0 5.3 1 6.2 3.1 1.3-1.6 3.3-3.1 7.4-3.1s7.6 1.4 7.6 6.9v21.7h-6.8v-20.8c0-2.1-0.7-3.4-3.2-3.4-3.1 0-3.9 1.9-3.9 4.8v19.4h-6.9v-20.7c0-2.8-1.1-3.6-3.3-3.6-3.1 0-3.8 1.9-3.8 4.8v19.4h-6.8v-20z"/>
		<path class="st0" d="m118.4 213.6c0-5.4 0-6.8-0.1-8.1h6.5c0.2 0.8 0.2 1.6 0.3 2.6 1.3-1.9 3.6-3 6.8-3 3.1 0 5.3 1 6.2 3.1 1.3-1.6 3.4-3.1 7.4-3.1 4.1 0 7.6 1.4 7.6 6.9v21.7h-6.8v-20.8c0-2.1-0.7-3.4-3.2-3.4-3.1 0-3.9 1.9-3.9 4.8v19.4h-6.9v-20.7c0-2.8-1.1-3.6-3.3-3.6-3.1 0-3.8 1.9-3.8 4.8v19.4h-6.8v-20z"/>
		<path class="st0" d="m165.6 220.8v4.3c0 2.4 0.7 4.8 4.1 4.8s3.9-2.1 3.9-4.4v-0.2h6.7v0.2c0 3.1-1 8.6-10.4 8.6-9.2 0-10.9-4.2-10.9-9.9v-9.8c0-4 1.9-9.4 10.9-9.4 8.1 0 10.6 4 10.6 9.4v6.4h-14.9zm8.2-3.9v-3.1c0-2.6-0.7-4.5-4-4.5-3 0-4.1 1.7-4.1 4.5v3.1h8.1z"/>
		<path class="st0" d="m185.9 215.1c0-4.6 0.1-6.8-0.1-9.6h6.5c0.1 0.6 0.2 2.8 0.2 4.5 1.5-3.7 4.9-4.9 8.5-4.9v6.1c-4.6 0-8.3 1.3-8.3 6.8v15.7h-6.8v-18.6z"/>
		<path class="st0" d="m224.4 224.5v0.4c0 5-1.8 9.2-10.4 9.2-8.5 0-10.2-4.1-10.2-9.9v-10.2c0-4.7 2.2-8.9 10.6-8.9 8.9 0 10.1 4.7 10.1 8.3v1.1h-6.8v-1.1c0-2.3-0.5-4.1-3.5-4.1-2.6 0-3.6 1.4-3.6 4.2v12.1c0 2.2 0.6 4.3 3.5 4.3 2.8 0 3.5-1.5 3.5-4.3v-1.1h6.8z"/>
		<path class="st0" d="m234.9 220.8v4.3c0 2.4 0.7 4.8 4.1 4.8s3.9-2.1 3.9-4.4v-0.2h6.7v0.2c0 3.1-1 8.6-10.4 8.6-9.2 0-10.9-4.2-10.9-9.9v-9.8c0-4 1.9-9.4 10.9-9.4 8.1 0 10.6 4 10.6 9.4v6.4h-14.9zm8.2-3.9v-3.1c0-2.6-0.7-4.5-4-4.5-3 0-4.1 1.7-4.1 4.5v3.1h8.1z"/>


</svg>
