<?xml version="1.0" encoding="utf-8"?>
<!-- Generator: Adobe Illustrator 25.0.0, SVG Export Plug-In . SVG Version: 6.00 Build 0)  -->
<svg version="1.1" id="Camada_1" xmlns="http://www.w3.org/2000/svg" xmlns:xlink="http://www.w3.org/1999/xlink" x="0px" y="0px"
	 viewBox="0 0 32 32" style="enable-background:new 0 0 32 32;" xml:space="preserve">
<style type="text/css">
	.st0{fill:#FFFFFF;}
</style>
<path class="st0" d="M28,0H4C2.3,0,1,0.9,1,2s1.3,2,3,2h24c1.7,0,3-0.9,3-2S29.7,0,28,0z"/>
<path class="st0" d="M27.9,14h-24c-1.7,0-3,0.9-3,2s1.3,2,3,2h24c1.7,0,3-0.9,3-2S29.5,14,27.9,14z"/>
<path class="st0" d="M27.9,28h-24c-1.7,0-3,0.9-3,2s1.3,2,3,2h24c1.7,0,3-0.9,3-2S29.5,28,27.9,28z"/>
</svg>
