<svg id="b6834225-9123-46d4-982b-b10f51688977" data-name="Camada 1" xmlns="http://www.w3.org/2000/svg" viewBox="0 0 30.1 32"><path d="M28,0H4C2.3,0,1,.9,1,2S2.3,4,4,4H28c1.7,0,3-.9,3-2S29.7,0,28,0Z" transform="translate(-0.9)" style="fill:#fff"/><path d="M27.9,14H3.9c-1.7,0-3,.9-3,2s1.3,2,3,2h24c1.7,0,3-.9,3-2S29.5,14,27.9,14Z" transform="translate(-0.9)" style="fill:#fff"/><path d="M27.9,28H3.9c-1.7,0-3,.9-3,2s1.3,2,3,2h24c1.7,0,3-.9,3-2S29.5,28,27.9,28Z" transform="translate(-0.9)" style="fill:#fff"/></svg>