<?xml version="1.0" encoding="utf-8"?>
<!-- Generator: Adobe Illustrator 25.0.0, SVG Export Plug-In . SVG Version: 6.00 Build 0)  -->
<svg version="1.1" id="Camada_1" xmlns="http://www.w3.org/2000/svg" xmlns:xlink="http://www.w3.org/1999/xlink" x="0px" y="0px"
	 viewBox="0 0 32 32" style="enable-background:new 0 0 32 32;" xml:space="preserve">
<path d="M28,0H4C2.34,0,1,0.9,1,2c0,1.1,1.34,2,3,2h24c1.66,0,3-0.9,3-2C31,0.9,29.66,0,28,0z"/>
<path d="M27.87,14h-24c-1.66,0-3,0.9-3,2c0,1.1,1.34,2,3,2h24c1.66,0,3-0.9,3-2C30.87,14.9,29.53,14,27.87,14z"/>
<path d="M27.87,28h-24c-1.66,0-3,0.9-3,2c0,1.1,1.34,2,3,2h24c1.66,0,3-0.9,3-2C30.87,28.9,29.53,28,27.87,28z"/>
</svg>
