<?xml version="1.0" encoding="utf-8"?>
<!-- Generator: Adobe Illustrator 25.0.0, SVG Export Plug-In . SVG Version: 6.00 Build 0)  -->
<svg version="1.1" xmlns="http://www.w3.org/2000/svg" xmlns:xlink="http://www.w3.org/1999/xlink" x="0px" y="0px"
	 viewBox="0 0 30 30" style="enable-background:new 0 0 30 30;" xml:space="preserve">
<style type="text/css">
	.st0{fill:none;stroke:#3457D2;stroke-miterlimit:10;}
</style>
<g id="Camada_1">
	<path class="st0" d="M26.05,27.5H3.95c-1.89,0-3.45-1.55-3.45-3.45V10.07c0-1.89,1.55-3.45,3.45-3.45h22.11
		c1.89,0,3.45,1.55,3.45,3.45v13.98C29.5,25.95,27.95,27.5,26.05,27.5z"/>
	<path class="st0" d="M20.07,6.63H9.93C9.69,6.63,9.5,6.44,9.5,6.2V3.43C9.5,3.19,9.69,3,9.93,3h10.14c0.24,0,0.43,0.19,0.43,0.43
		V6.2C20.5,6.44,20.31,6.63,20.07,6.63z"/>
	<path class="st0" d="M17.11,18.16h-4.22c-0.22,0-0.39-0.18-0.39-0.39v-3.22c0-0.22,0.18-0.39,0.39-0.39h4.22
		c0.22,0,0.39,0.18,0.39,0.39v3.22C17.5,17.98,17.32,18.16,17.11,18.16z"/>
	<path class="st0" d="M17.5,15.5"/>
	<path class="st0" d="M17.5,16.5"/>
	<path class="st0" d="M17.5,15.5c1.84-0.02,4.27-0.24,7-1.01c2-0.57,3.67-1.3,5-1.99"/>
	<path class="st0" d="M12.13,15.65c-1.84-0.02-4.27-0.24-7-1.01c-2-0.57-3.67-1.3-5-1.99"/>
</g>
<g id="Camada_2">
</g>
</svg>
