<?xml version="1.0" encoding="utf-8"?>
<!-- Generator: Adobe Illustrator 25.0.0, SVG Export Plug-In . SVG Version: 6.00 Build 0)  -->
<svg version="1.1" id="Camada_1" xmlns="http://www.w3.org/2000/svg" xmlns:xlink="http://www.w3.org/1999/xlink" x="0px" y="0px"
	 viewBox="0 0 30 30" style="enable-background:new 0 0 30 30;" xml:space="preserve">
<style type="text/css">
	.st0{fill:none;stroke:#D2345A;stroke-miterlimit:10;}
</style>
<g>
	<path class="st0" d="M23.5,11.5c-0.04,0-0.07,0-0.11,0.01c-0.01,0-0.02-0.01-0.03-0.01H6.64c-0.01,0-0.02,0.01-0.03,0.01
		c-0.04,0-0.07-0.01-0.11-0.01c-3.31,0-6,2.69-6,6s2.69,6,6,6c2.22,0,4.15-1.21,5.19-3h6.62c1.04,1.79,2.97,3,5.19,3
		c3.31,0,6-2.69,6-6S26.81,11.5,23.5,11.5z"/>
	<path class="st0" d="M16.5,4.5c-2.2,0.69-3.27,2.19-3,3c0.23,0.68,2.42,0.05,3,1c0.47,0.76-0.34,2.09-1,3"/>
</g>
</svg>
