<svg id="b4f71b9c-93ac-42f6-8032-049a9ecf3d50" data-name="Camada 1" xmlns="http://www.w3.org/2000/svg" viewBox="0 0 30.11 25.5"><g id="bf480859-c9ee-4734-942e-9481141b2a59" data-name="Camada 1"><path d="M26.05,27.5H4A3.46,3.46,0,0,1,.5,24.05v-14A3.46,3.46,0,0,1,4,6.62H26.06a3.46,3.46,0,0,1,3.45,3.45v14A3.47,3.47,0,0,1,26.05,27.5Z" transform="translate(0.1 -2.5)" style="fill:none;stroke:#3457d2;stroke-miterlimit:10"/><path d="M20.07,6.63H9.93A.43.43,0,0,1,9.5,6.2V3.43A.43.43,0,0,1,9.93,3H20.07a.43.43,0,0,1,.43.43V6.2A.43.43,0,0,1,20.07,6.63Z" transform="translate(0.1 -2.5)" style="fill:none;stroke:#3457d2;stroke-miterlimit:10"/><path d="M17.11,18.16H12.89a.39.39,0,0,1-.39-.39V14.55a.39.39,0,0,1,.39-.39h4.22a.39.39,0,0,1,.39.39v3.22A.4.4,0,0,1,17.11,18.16Z" transform="translate(0.1 -2.5)" style="fill:none;stroke:#3457d2;stroke-miterlimit:10"/><path d="M17.5,15.5" transform="translate(0.1 -2.5)" style="fill:none;stroke:#3457d2;stroke-miterlimit:10"/><path d="M17.5,16.5" transform="translate(0.1 -2.5)" style="fill:none;stroke:#3457d2;stroke-miterlimit:10"/><path d="M17.5,15.5a26.92,26.92,0,0,0,7-1,26.76,26.76,0,0,0,5-2" transform="translate(0.1 -2.5)" style="fill:none;stroke:#3457d2;stroke-miterlimit:10"/><path d="M12.13,15.65a26.92,26.92,0,0,1-7-1,26.76,26.76,0,0,1-5-2" transform="translate(0.1 -2.5)" style="fill:none;stroke:#3457d2;stroke-miterlimit:10"/></g></svg>